# This file uses centimeters as units for non-parametric coordinates.

mtllib Hosp_desk.mtl
g default
v 0.313496 -0.000829 0.510393
v 0.313496 0.729888 0.510393
v 0.313496 0.729888 -0.510393
v 0.313496 -0.000829 -0.510393
v 0.085972 0.729888 0.510393
v 0.085972 0.729888 -0.510393
v 0.085972 -0.000829 -0.510393
v 0.085972 -0.000829 0.510393
v 0.085972 0.960229 0.510393
v 0.313496 0.960229 0.510393
v 0.313496 0.960229 -0.510393
v 0.085972 0.960229 -0.510393
v 0.001168 0.960189 0.510393
v 0.407215 0.960189 0.510393
v 0.407215 0.960189 -0.510393
v 0.001168 0.960189 -0.510393
v 0.431691 0.969216 0.510393
v 0.431691 0.969216 -0.510393
v -0.027765 0.972124 0.510393
v -0.027765 0.972124 -0.510393
v 0.431011 0.989438 0.510393
v 0.431011 0.989438 -0.510393
v -0.027765 0.988954 0.510393
v -0.027765 0.988954 -0.510393
v 0.406654 1.005718 0.510393
v 0.406654 1.005718 -0.510393
v 0.000243 1.005718 0.510393
v 0.000243 1.005718 -0.510393
v -0.356648 0.729888 0.510393
v -0.356648 0.729888 -0.510393
v -0.382001 0.715718 0.510393
v -0.382001 0.715718 -0.510393
v -0.382001 0.695931 0.510393
v -0.382001 0.695931 -0.510393
v -0.355073 0.685547 0.510393
v -0.355073 0.685547 -0.510393
v 0.086868 0.685547 0.510393
v 0.086868 0.685547 -0.510393
v 0.313496 0.687577 0.510393
v 0.313496 0.687577 -0.510393
vt 0.374515 0.827235
vt 0.990713 0.827235
vt 0.990713 0.852776
vt 0.374515 0.852776
vt 0.374515 0.413275
vt 0.990713 0.413275
vt 0.990713 0.991822
vt 0.374515 0.991822
vt 0.156854 0.849483
vt 0.060609 0.849483
vt 0.060609 0.947305
vt 0.156854 0.947305
vt 0.156854 0.831514
vt 0.060609 0.831514
vt 0.020808 0.966623
vt 0.193250 0.966623
vt 0.344539 0.831514
vt 0.344540 0.849483
vt 0.156854 0.539159
vt 0.060609 0.539159
vt 0.020808 0.947305
vt 0.193250 0.947305
vt 0.356871 0.843465
vt 0.356871 0.835062
vt 0.010414 0.959710
vt 0.010414 0.951122
vt 0.205537 0.959504
vt 0.205537 0.952357
vt 0.060609 0.849483
vt 0.156854 0.849483
vt 0.156854 0.947305
vt 0.060609 0.947305
vt 0.156854 0.831514
vt 0.060609 0.831514
vt 0.193250 0.966623
vt 0.020808 0.966623
vt 0.344539 0.831514
vt 0.344539 0.849483
vt 0.060609 0.537797
vt 0.156854 0.537797
vt 0.193250 0.947305
vt 0.020808 0.947305
vt 0.356871 0.843465
vt 0.356871 0.835062
vt 0.205537 0.959504
vt 0.205537 0.952357
vt 0.010414 0.959710
vt 0.010414 0.951122
vt 0.374515 0.852776
vt 0.990713 0.852776
vt 0.990713 0.991444
vt 0.374515 0.991444
vt 0.990412 0.250035
vt 0.218880 0.250035
vt 0.218880 0.342584
vt 0.990412 0.342584
vt 0.218880 0.370412
vt 0.990412 0.370412
vt 0.218880 0.250035
vt 0.990413 0.250035
vt 0.990412 0.342584
vt 0.218880 0.342584
vt 0.990412 0.370412
vt 0.218880 0.370412
vt 0.990412 0.390921
vt 0.218880 0.390921
vt 0.218880 0.370412
vt 0.990412 0.370412
vt 0.218880 0.342584
vt 0.990412 0.342584
vt 0.990412 0.390921
vt 0.218880 0.390921
vt 0.218880 0.370412
vt 0.990412 0.370412
vt 0.218880 0.342584
vt 0.990412 0.342584
vt 0.990413 0.342584
vt 0.218880 0.342584
vt 0.218880 0.016708
vt 0.990412 0.016708
vt 0.990412 0.016708
vt 0.990412 0.342584
vt 0.218881 0.342584
vt 0.218880 0.016708
vt 0.990412 0.370412
vt 0.218880 0.370412
vt 0.218880 0.342584
vt 0.990412 0.342584
vt 0.990412 0.370412
vt 0.218880 0.370412
vt 0.990412 0.370412
vt 0.218880 0.370412
vt 0.218881 0.342584
vt 0.990412 0.342584
vt 0.218880 0.016708
vt 0.990412 0.016708
vt 0.990713 0.827607
vt 0.374515 0.827607
vt 0.374515 0.413275
vt 0.990713 0.413275
vn 1.000000 0.000000 0.000000
vn 1.000000 0.000000 0.000000
vn 1.000000 0.000000 0.000000
vn 1.000000 0.000000 0.000000
vn 0.000000 0.000000 1.000000
vn 0.000000 0.000000 1.000000
vn 0.000000 0.000000 1.000000
vn 0.000000 0.000000 1.000000
vn 1.000000 0.000000 0.000000
vn 1.000000 0.000000 0.000000
vn 0.000000 0.000000 -1.000000
vn 0.000000 0.000000 -1.000000
vn 0.000000 0.000000 -1.000000
vn 0.000000 0.000000 -1.000000
vn -1.000000 0.000000 0.000000
vn -1.000000 0.000000 0.000000
vn -1.000000 0.000000 0.000000
vn -1.000000 0.000000 0.000000
vn -0.000422 -1.000000 0.000000
vn -0.000422 -1.000000 0.000000
vn -0.000422 -1.000000 0.000000
vn -0.000422 -1.000000 0.000000
vn 0.000467 -1.000000 0.000000
vn 0.000467 -1.000000 0.000000
vn 0.000467 -1.000000 0.000000
vn 0.000467 -1.000000 0.000000
vn 0.346010 -0.938231 0.000000
vn 0.346010 -0.938231 0.000000
vn 0.346010 -0.938231 0.000000
vn 0.346010 -0.938231 0.000000
vn -0.381335 -0.924437 0.000000
vn -0.381335 -0.924437 0.000000
vn -0.381335 -0.924437 0.000000
vn -0.381335 -0.924437 0.000000
vn 0.999436 0.033592 0.000000
vn 0.999436 0.033592 0.000000
vn 0.999436 0.033592 0.000000
vn 0.999436 0.033592 0.000000
vn -1.000000 0.000000 0.000000
vn -1.000000 0.000000 0.000000
vn -1.000000 0.000000 0.000000
vn -1.000000 0.000000 0.000000
vn 0.555685 0.831393 0.000000
vn 0.555685 0.831393 0.000000
vn 0.555685 0.831393 0.000000
vn 0.555685 0.831393 0.000000
vn -0.513585 0.858039 0.000000
vn -0.513585 0.858039 0.000000
vn -0.513585 0.858039 0.000000
vn -0.513585 0.858039 0.000000
vn 0.000000 1.000000 0.000000
vn 0.000000 1.000000 0.000000
vn 0.000000 1.000000 0.000000
vn 0.000000 1.000000 0.000000
vn -0.000001 0.000000 1.000000
vn -0.000001 0.000000 1.000000
vn -0.000001 0.000000 1.000000
vn -0.000001 0.000000 1.000000
vn 0.000000 0.000000 -1.000000
vn 0.000000 0.000000 -1.000000
vn 0.000000 0.000000 -1.000000
vn 0.000000 0.000000 -1.000000
vn 0.000000 0.000000 -1.000000
vn 0.000000 0.000000 -1.000000
vn 0.000000 0.000000 -1.000000
vn 0.000000 0.000000 -1.000000
vn 0.000000 0.000000 1.000000
vn 0.000000 0.000000 1.000000
vn 0.000000 0.000000 1.000000
vn 0.000000 0.000000 1.000000
vn 0.000000 0.000000 -1.000000
vn 0.000000 0.000000 -1.000000
vn 0.000000 0.000000 -1.000000
vn 0.000000 0.000000 -1.000000
vn 0.000000 0.000000 1.000000
vn 0.000000 0.000000 1.000000
vn 0.000000 0.000000 1.000000
vn 0.000000 0.000000 1.000000
vn 0.000000 0.000000 1.000000
vn 0.000000 0.000000 1.000000
vn 0.000000 0.000000 1.000000
vn 0.000000 0.000000 1.000000
vn 0.000000 0.000000 1.000000
vn 0.000000 0.000000 1.000000
vn 0.000000 0.000000 -1.000000
vn 0.000000 0.000000 -1.000000
vn 0.000000 0.000000 -1.000000
vn 0.000000 0.000000 -1.000000
vn 0.000000 0.000000 -1.000000
vn 0.000000 0.000000 -1.000000
vn 0.000000 1.000000 0.000000
vn 0.000000 1.000000 0.000000
vn 0.000000 1.000000 0.000000
vn 0.000000 1.000000 0.000000
vn -0.487886 0.872908 0.000000
vn -0.487886 0.872908 0.000000
vn -0.487886 0.872908 0.000000
vn -0.487886 0.872908 0.000000
vn -1.000000 0.000000 0.000000
vn -1.000000 0.000000 0.000000
vn -1.000000 0.000000 0.000000
vn -1.000000 0.000000 0.000000
vn -0.359800 -0.933030 0.000000
vn -0.359800 -0.933030 0.000000
vn -0.359800 -0.933030 0.000000
vn -0.359800 -0.933030 0.000000
vn 0.000000 -1.000000 0.000000
vn 0.000000 -1.000000 0.000000
vn 0.000000 -1.000000 0.000000
vn 0.000000 -1.000000 0.000000
vn 0.000000 0.000000 1.000000
vn 0.000000 0.000000 1.000000
vn 0.000000 0.000000 1.000000
vn 0.000000 0.000000 1.000000
vn 0.000000 0.000000 -1.000000
vn 0.000000 0.000000 -1.000000
vn 0.000000 0.000000 -1.000000
vn 0.000000 0.000000 -1.000000
vn 0.000000 0.000000 -1.000000
vn 0.000000 0.000000 -1.000000
vn 0.000000 0.000000 -1.000000
vn 0.000000 0.000000 -1.000000
vn 0.000000 0.000000 1.000000
vn 0.000000 0.000000 1.000000
vn 0.000000 0.000000 1.000000
vn 0.000000 0.000000 1.000000
vn -0.999999 0.001305 0.000000
vn -0.999999 0.001305 0.000000
vn -0.999999 0.001305 0.000000
vn -0.999999 0.001305 0.000000
vn 1.000000 0.000000 0.000000
vn 1.000000 0.000000 0.000000
vn -0.000000 0.000000 1.000000
vn -0.000000 0.000000 1.000000
vn -0.000000 0.000000 1.000000
vn -0.000000 0.000000 1.000000
vn -0.000000 0.000000 -1.000000
vn -0.000000 0.000000 -1.000000
vn -0.000000 0.000000 -1.000000
vn -0.000000 0.000000 -1.000000
vn 0.000000 0.000000 -1.000000
vn 0.000000 0.000000 -1.000000
vn 0.000000 0.000000 -1.000000
vn 0.000000 0.000000 -1.000000
vn 0.000000 0.000000 1.000000
vn 0.000000 0.000000 1.000000
vn 0.000000 0.000000 1.000000
vn 0.000000 0.000000 1.000000
s 1
g pCube1
usemtl initialShadingGroup
f 39/1/1 40/2/2 3/3/3 2/4/4
s off
f 5/9/5 2/10/6 10/11/7 9/12/8
s 1
f 2/4/4 3/3/3 11/7/9 10/8/10
s off
f 3/29/11 6/30/12 12/31/13 11/32/14
f 6/49/15 5/50/16 9/51/17 12/52/18
f 10/53/19 11/54/20 15/55/21 14/56/22
f 12/59/23 9/60/24 13/61/25 16/62/26
f 14/56/27 15/55/28 18/57/29 17/58/30
f 16/62/31 13/61/32 19/63/33 20/64/34
f 17/65/35 18/66/36 22/67/37 21/68/38
f 20/71/39 19/72/40 23/73/41 24/74/42
f 21/68/43 22/67/44 26/69/45 25/70/46
f 24/74/47 23/73/48 27/75/49 28/76/50
f 28/77/51 27/78/52 25/79/53 26/80/54
f 21/25/55 25/15/56 14/21/57 17/26/58
f 26/36/59 22/47/60 18/48/61 15/42/62
f 24/45/63 28/35/64 16/41/65 20/46/66
f 27/16/67 23/27/68 19/28/69 13/22/70
f 11/32/71 12/31/72 28/35/73 26/36/74
f 9/12/75 10/11/76 25/15/77 27/16/78
f 25/15/79 10/11/80 14/21/81
f 9/12/82 27/16/83 13/22/84
f 26/36/85 15/42/86 11/32/87
f 28/35/88 12/31/89 16/41/90
f 6/81/91 30/82/92 29/83/93 5/84/94
f 29/83/95 30/82/96 32/85/97 31/86/98
f 31/87/99 32/88/100 34/89/101 33/90/102
f 33/91/103 34/92/104 36/93/105 35/94/106
f 35/94/107 36/93/108 38/95/109 37/96/110
f 29/18/111 31/23/112 33/24/113 35/17/114
f 32/43/115 30/38/116 36/37/117 34/44/118
f 38/33/119 36/37/120 30/38/121 6/30/122
f 35/17/123 37/13/124 5/9/125 29/18/126
f 37/97/127 38/98/128 7/99/129 8/100/130
s 1
f 1/5/131 4/6/132 40/2/2 39/1/1
s off
f 5/9/133 37/13/134 39/14/135 2/10/136
f 38/33/137 6/30/138 3/29/139 40/34/140
f 40/34/141 4/39/142 7/40/143 38/33/144
f 37/13/145 8/19/146 1/20/147 39/14/148
