# This file uses centimeters as units for non-parametric coordinates.

mtllib Hosp_desk90.mtl
g default
v -0.833441 -0.000829 0.631062
v -0.833441 0.729888 0.631062
v 0.187345 0.729888 0.631062
v 0.187345 -0.000829 0.631062
v -0.833441 0.729888 0.403538
v -0.833441 -0.000829 0.403538
v -0.833441 0.960229 0.403538
v -0.833441 0.960229 0.631062
v 0.187345 0.960229 0.631062
v -0.833441 0.960189 0.318733
v -0.833441 0.960189 0.724781
v 0.187345 0.960189 0.724781
v -0.833441 0.969216 0.749256
v 0.187345 0.969216 0.749256
v -0.833441 0.972124 0.289800
v -0.833441 0.989438 0.748577
v 0.187345 0.989438 0.748577
v -0.833441 0.988954 0.289800
v -0.833441 1.005718 0.724220
v 0.187345 1.005718 0.724220
v -0.833441 1.005718 0.317809
v -0.833441 0.729888 -0.039082
v -0.833441 0.715718 -0.064435
v -0.833441 0.695931 -0.064435
v -0.833441 0.685547 -0.037508
v -0.833441 0.685547 0.404434
v -0.833441 0.687577 0.631062
v 0.187345 0.687577 0.631062
v 0.313496 -0.000829 0.510393
v 0.313496 0.729888 0.510393
v 0.313496 0.729888 -0.510393
v 0.313496 -0.000829 -0.510393
v 0.085972 0.729888 -0.510393
v 0.085972 -0.000829 -0.510393
v 0.313496 0.960229 0.510393
v 0.313496 0.960229 -0.510393
v 0.085972 0.960229 -0.510393
v 0.407215 0.960189 0.510393
v 0.407215 0.960189 -0.510393
v 0.001168 0.960189 -0.510393
v 0.431691 0.969216 0.510393
v 0.431691 0.969216 -0.510393
v -0.027765 0.972124 -0.510393
v 0.431011 0.989438 0.510393
v 0.431011 0.989438 -0.510393
v -0.027765 0.988954 -0.510393
v 0.406654 1.005718 0.510393
v 0.406654 1.005718 -0.510393
v 0.000243 1.005718 -0.510393
v -0.356648 0.729888 -0.510393
v -0.382001 0.715718 -0.510393
v -0.382001 0.695931 -0.510393
v -0.355073 0.685547 -0.510393
v 0.086868 0.685547 -0.510393
v 0.313496 0.687577 0.510393
v 0.313496 0.687577 -0.510393
v -0.380494 0.729888 -0.039082
v -0.381248 0.715718 -0.064073
v -0.381248 0.695931 -0.064073
v -0.380494 0.685547 -0.037508
v -0.380494 0.685547 0.404434
v -0.380494 -0.000829 0.403538
v -0.356648 0.729888 -0.063711
v -0.355073 0.685547 -0.063711
v 0.086868 0.685547 -0.063711
v 0.085972 -0.000829 -0.063711
v 0.000243 1.005718 0.289614
v -0.027884 0.988954 0.289707
v -0.027884 0.972124 0.289707
v 0.001168 0.960189 0.289614
v 0.085972 0.960229 0.289614
v 0.085972 0.729888 0.289614
v -0.028003 1.005718 0.317809
v -0.028003 0.960189 0.318733
v -0.028003 0.960229 0.403538
v -0.028003 0.729888 0.403538
vt 0.374515 0.827235
vt 0.990713 0.827235
vt 0.990713 0.852776
vt 0.374515 0.852776
vt 0.374515 0.413275
vt 0.990713 0.413275
vt 0.990713 0.991822
vt 0.374515 0.991822
vt 0.156854 0.849483
vt 0.060609 0.849483
vt 0.060609 0.947305
vt 0.156854 0.947305
vt 0.156854 0.831514
vt 0.060609 0.831514
vt 0.020808 0.966623
vt 0.193250 0.966623
vt 0.344539 0.831514
vt 0.344540 0.849483
vt 0.156854 0.539159
vt 0.060609 0.539159
vt 0.020808 0.947305
vt 0.193250 0.947305
vt 0.356871 0.843465
vt 0.356871 0.835062
vt 0.010414 0.959710
vt 0.010414 0.951122
vt 0.205537 0.959504
vt 0.205537 0.952357
vt 0.990713 0.852776
vt 0.990713 0.991444
vt 0.990412 0.250035
vt 0.218880 0.250035
vt 0.218880 0.342584
vt 0.990412 0.342584
vt 0.218880 0.370412
vt 0.990412 0.370412
vt 0.990413 0.250035
vt 0.990412 0.342584
vt 0.990412 0.370412
vt 0.990412 0.390921
vt 0.218880 0.390921
vt 0.218880 0.370412
vt 0.990412 0.370412
vt 0.218880 0.342584
vt 0.990412 0.342584
vt 0.218880 0.390921
vt 0.218880 0.370412
vt 0.218880 0.342584
vt 0.218881 0.342584
vt 0.218880 0.370412
vt 0.218880 0.342584
vt 0.218880 0.370412
vt 0.990412 0.370412
vt 0.990412 0.342584
vt 0.990412 0.016708
vt 0.990713 0.827607
vt 0.990713 0.413275
vt 0.374515 0.827235
vt 0.990713 0.827235
vt 0.990713 0.852776
vt 0.374515 0.852776
vt 0.990713 0.991822
vt 0.374515 0.991822
vt 0.060609 0.849483
vt 0.156854 0.849483
vt 0.156854 0.947305
vt 0.060609 0.947305
vt 0.374515 0.852776
vt 0.374515 0.991444
vt 0.990412 0.250035
vt 0.218880 0.250035
vt 0.218880 0.342584
vt 0.990412 0.342584
vt 0.218880 0.250035
vt 0.218880 0.342584
vt 0.218880 0.370412
vt 0.990412 0.370412
vt 0.218880 0.370412
vt 0.990412 0.390921
vt 0.218880 0.390921
vt 0.218880 0.370412
vt 0.990412 0.370412
vt 0.990412 0.390921
vt 0.990412 0.370412
vt 0.218880 0.342584
vt 0.990412 0.342584
vt 0.990412 0.342584
vt 0.020808 0.966623
vt 0.010414 0.959710
vt 0.010414 0.951122
vt 0.020808 0.947305
vt 0.205537 0.959504
vt 0.193250 0.966623
vt 0.193250 0.947305
vt 0.205537 0.952357
vt 0.990412 0.342584
vt 0.990412 0.370412
vt 0.990412 0.342584
vt 0.990412 0.370412
vt 0.218880 0.370412
vt 0.218881 0.342584
vt 0.218880 0.016708
vt 0.356871 0.843465
vt 0.344539 0.849483
vt 0.344539 0.831514
vt 0.356871 0.835062
vt 0.156854 0.831514
vt 0.374515 0.827607
vt 0.374515 0.413275
vt 0.374515 0.413275
vt 0.990713 0.413275
vt 0.060609 0.831514
vt 0.060609 0.537797
vt 0.156854 0.537797
vt 0.561227 0.342584
vt 0.561227 0.342584
vt 0.561227 0.370412
vt 0.648066 0.370412
vt 0.561227 0.370412
vt 0.648066 0.342584
vt 0.717291 0.827607
vt 0.648066 0.016708
vt 0.717292 0.413275
vt 0.652801 0.342584
vt 0.652801 0.342584
vt 0.652801 0.370412
vt 0.556492 0.370412
vt 0.652801 0.370412
vt 0.556492 0.342584
vt 0.644154 0.827607
vt 0.556492 0.016708
vt 0.644154 0.413275
vt 0.385750 0.342584
vt 0.385750 0.370412
vt 0.823543 0.370412
vt 0.385750 0.390921
vt 0.823543 0.342584
vt 0.857440 0.991444
vt 0.823543 0.250035
vt 0.857440 0.852776
vt 0.827648 0.342584
vt 0.827648 0.370412
vt 0.381645 0.370412
vt 0.827648 0.390921
vt 0.381645 0.342584
vt 0.504510 0.991444
vt 0.381645 0.250035
vt 0.504510 0.852776
vt 0.470423 0.036338
vt 0.457752 0.022996
vt 0.715132 0.026700
vt 0.242064 0.056801
vt 0.594032 0.371731
vt 0.398206 0.343070
vt 0.578576 0.386313
vt 0.965542 0.343070
vt 0.965542 0.056801
vt 0.965542 0.343070
vt 0.965542 0.056801
vt 0.669352 0.030416
vt 0.655383 0.044240
vt 0.408849 0.039839
vt 0.395025 0.025870
vt 0.601896 0.097170
vt 0.461780 0.093326
vt 0.439067 0.373300
vt 0.428783 0.383807
vt 0.639774 0.366539
vt 0.381834 0.036736
vt 0.363459 0.020391
vt 0.991702 0.366539
vt 0.991702 0.020391
vt 0.991702 0.366539
vt 0.991702 0.020391
vt 0.731920 0.046629
vt 0.740280 0.055088
vt 0.723697 0.055470
vt 0.883380 0.195942
vt 0.582843 0.198571
vt 0.423593 0.108067
vt 0.385062 0.108067
vt 0.371832 0.094814
vt 0.371832 0.056284
vt 0.371875 0.108013
vt 0.567468 0.988078
vt 0.567468 0.850505
vt 0.639539 0.850505
vt 0.639539 0.988078
vt 0.567468 0.825235
vt 0.639539 0.825235
vt 0.567468 0.414079
vt 0.639539 0.414079
vt 0.305052 0.164501
vt 0.295864 0.164809
vt 0.295864 0.056284
vt 0.305052 0.056284
vt 0.820060 0.408062
vt 0.820060 0.940334
vt 0.457629 0.940333
vt 0.458324 0.408062
vt 0.473131 0.986649
vt 0.473131 0.837187
vt 0.399176 0.837187
vt 0.399176 0.986649
vt 0.478140 0.037098
vt 0.639774 0.366539
vt 0.418584 0.372888
vt 0.363459 0.020391
vt 0.701790 0.039372
vt 0.397577 0.343070
vt 0.563892 0.370982
vt 0.242064 0.056801
vn 0.000000 0.000000 1.000000
vn 0.000000 0.000000 1.000000
vn 0.000000 0.000000 1.000000
vn 0.000000 0.000000 1.000000
vn -1.000000 0.000000 0.000000
vn -1.000000 0.000000 0.000000
vn -1.000000 0.000000 0.000000
vn -1.000000 0.000000 0.000000
vn 0.000000 0.000000 1.000000
vn 0.000000 0.000000 1.000000
vn -0.122969 0.000000 -0.992411
vn 0.000000 0.000000 -1.000000
vn 0.000000 0.000000 -1.000000
vn -0.122969 0.000000 -0.992411
vn 0.000000 -1.000000 -0.000422
vn 0.000000 -1.000000 -0.000422
vn 0.000000 -1.000000 -0.000422
vn 0.000000 -1.000000 -0.000422
vn 0.000020 -1.000000 0.000467
vn 0.000000 -1.000000 0.000467
vn 0.000000 -1.000000 0.000467
vn 0.000055 -1.000000 0.000467
vn 0.000000 -0.938231 0.346010
vn 0.000000 -0.938231 0.346010
vn 0.000000 -0.938231 0.346010
vn 0.000000 -0.938231 0.346010
vn -0.003724 -0.924644 -0.380813
vn -0.000022 -0.924654 -0.380808
vn -0.000022 -0.924654 -0.380808
vn -0.198560 -0.959507 -0.199798
vn 0.000000 0.033591 0.999436
vn 0.000000 0.033591 0.999436
vn 0.000000 0.033591 0.999436
vn 0.000000 0.033591 0.999436
vn -0.704687 0.000000 -0.709518
vn -0.000116 0.000000 -1.000000
vn -0.000116 0.000000 -1.000000
vn -0.704687 0.000000 -0.709518
vn 0.000000 0.831394 0.555684
vn 0.000000 0.831394 0.555684
vn 0.000000 0.831394 0.555684
vn 0.000000 0.831394 0.555684
vn -0.276022 0.920144 -0.277752
vn -0.000030 0.858415 -0.512956
vn -0.000030 0.858415 -0.512956
vn -0.005198 0.858397 -0.512959
vn -1.000000 -0.000001 0.000000
vn -1.000000 -0.000001 0.000000
vn -1.000000 -0.000001 0.000000
vn -1.000000 -0.000001 0.000000
vn -1.000000 0.000001 0.000000
vn -1.000000 0.000001 0.000000
vn -1.000000 0.000001 0.000000
vn -1.000000 0.000001 0.000000
vn -1.000000 0.000000 0.000000
vn -1.000000 0.000000 0.000000
vn -1.000000 0.000000 0.000000
vn -1.000000 0.000000 0.000000
vn -1.000000 0.000001 0.000000
vn -1.000000 0.000001 0.000000
vn -1.000000 0.000001 0.000000
vn -1.000000 0.000000 0.000000
vn -1.000000 0.000000 0.000000
vn -1.000000 0.000000 0.000000
vn 0.000196 0.871412 -0.490552
vn 0.000196 0.871412 -0.490552
vn 0.000196 0.871412 -0.490552
vn 0.000196 0.871412 -0.490552
vn 0.000800 0.000000 -1.000000
vn 0.000800 0.000000 -1.000000
vn 0.000800 0.000000 -1.000000
vn 0.000800 0.000000 -1.000000
vn 0.000145 -0.932210 -0.361917
vn -0.008809 -0.932239 -0.361735
vn -0.005623 -0.932238 -0.361803
vn 0.000145 -0.932210 -0.361917
vn 0.000000 -1.000000 0.000000
vn 0.000000 -1.000000 0.000000
vn 0.000000 -1.000000 0.000000
vn 0.000000 -1.000000 0.000000
vn -1.000000 0.000000 0.000000
vn -1.000000 0.000000 0.000000
vn -1.000000 0.000000 0.000000
vn -1.000000 0.000000 0.000000
vn -1.000000 0.000000 0.000000
vn -1.000000 0.000000 0.000000
vn -1.000000 0.000000 0.000000
vn -1.000000 0.000000 0.000000
vn 0.000000 0.001305 -0.999999
vn -0.453120 0.001164 -0.891449
vn -0.453328 0.001164 -0.891343
vn 0.000000 0.001305 -0.999999
vn 0.000000 0.000000 1.000000
vn 0.000000 0.000000 1.000000
vn -1.000000 0.000000 0.000000
vn -1.000000 0.000000 0.000000
vn -1.000000 0.000000 0.000000
vn -1.000000 0.000000 0.000000
vn -1.000000 0.000000 0.000000
vn -1.000000 0.000000 0.000000
vn -1.000000 0.000000 0.000000
vn -1.000000 0.000000 0.000000
vn 1.000000 0.000000 0.000000
vn 1.000000 0.000000 0.000000
vn 1.000000 0.000000 0.000000
vn 1.000000 0.000000 0.000000
vn 1.000000 0.000000 0.000000
vn 1.000000 0.000000 0.000000
vn 0.000000 0.000000 -1.000000
vn 0.000000 0.000000 -1.000000
vn 0.000000 0.000000 -1.000000
vn 0.000000 0.000000 -1.000000
vn -0.000422 -1.000000 0.000000
vn -0.000422 -1.000000 0.000000
vn -0.000422 -1.000000 0.000000
vn -0.000422 -1.000000 0.000000
vn 0.346010 -0.938231 0.000000
vn 0.346010 -0.938231 0.000000
vn 0.346010 -0.938231 0.000000
vn 0.346010 -0.938231 0.000000
vn 0.999436 0.033592 0.000000
vn 0.999436 0.033592 0.000000
vn 0.999436 0.033592 0.000000
vn 0.999436 0.033592 0.000000
vn 0.555685 0.831393 0.000000
vn 0.555685 0.831393 0.000000
vn 0.555685 0.831393 0.000000
vn 0.555685 0.831393 0.000000
vn 0.000000 0.000000 -1.000000
vn 0.000000 0.000000 -1.000000
vn 0.000000 0.000000 -1.000000
vn 0.000000 0.000000 -1.000000
vn 0.000000 0.000000 -1.000000
vn 0.000000 0.000000 -1.000000
vn 0.000000 0.000000 -1.000000
vn 0.000000 0.000000 -1.000000
vn 0.000000 0.000000 -1.000000
vn 0.000000 0.000000 -1.000000
vn 0.000000 0.000000 -1.000000
vn 0.000000 0.000000 -1.000000
vn 0.000000 0.000000 -1.000000
vn 0.000000 0.000000 -1.000000
vn 0.000000 0.000000 -1.000000
vn 0.000000 0.000000 -1.000000
vn 0.000000 0.000000 -1.000000
vn 0.000000 0.000000 -1.000000
vn 0.000000 0.000000 -1.000000
vn 0.000000 0.000000 -1.000000
vn 0.000000 0.000000 -1.000000
vn 0.000000 0.000000 -1.000000
vn 0.000000 0.000000 -1.000000
vn 0.000000 0.000000 -1.000000
vn 0.000000 0.000000 -1.000000
vn 0.000000 0.000000 -1.000000
vn 1.000000 0.000000 0.000000
vn 1.000000 0.000000 0.000000
vn -0.000000 0.000000 -1.000000
vn -0.000000 0.000000 -1.000000
vn -0.000000 0.000000 -1.000000
vn -0.000000 0.000000 -1.000000
vn 0.000000 0.000000 -1.000000
vn 0.000000 0.000000 -1.000000
vn 0.000000 0.000000 -1.000000
vn 0.000000 0.000000 -1.000000
vn -0.493462 0.869767 0.000416
vn -0.493462 0.869767 0.000416
vn -0.493462 0.869767 0.000416
vn -0.493462 0.869767 0.000416
vn -0.999999 0.000000 0.001687
vn -0.999999 0.000000 0.001687
vn -0.999999 0.000000 0.001687
vn -0.999999 0.000000 0.001687
vn -0.364231 -0.931308 0.000307
vn -0.364231 -0.931308 0.000307
vn -0.364231 -0.931308 0.000307
vn -0.364231 -0.931308 0.000307
vn 0.000000 -1.000000 0.000000
vn 0.000000 -1.000000 0.000000
vn 0.000000 -1.000000 0.000000
vn 0.000000 -1.000000 0.000000
vn -0.890553 0.001162 -0.454879
vn -0.890658 0.001162 -0.454672
vn -0.999999 0.001305 0.000000
vn -0.999999 0.001305 0.000000
vn 0.691230 0.000000 0.722635
vn 0.691230 0.000000 0.722635
vn 0.691230 0.000000 0.722635
vn 0.691230 0.000000 0.722635
vn 0.691230 0.000000 0.722635
vn 0.691230 0.000000 0.722635
vn 0.691230 0.000000 0.722635
vn 0.691230 0.000000 0.722635
vn 0.691230 0.000000 0.722635
vn 0.691230 0.000000 0.722635
vn 0.691230 0.000000 0.722635
vn 0.691230 0.000000 0.722635
vn 0.698831 0.023758 0.714892
vn 0.698831 0.023758 0.714892
vn 0.698831 0.023758 0.714892
vn 0.698831 0.023758 0.714892
vn 0.479891 0.726704 0.491535
vn 0.479891 0.726704 0.491535
vn 0.479891 0.726704 0.491535
vn 0.479891 0.726704 0.491535
vn 0.323076 -0.886641 0.330892
vn 0.323076 -0.886641 0.330892
vn 0.323076 -0.886641 0.330892
vn 0.323076 -0.886641 0.330892
vn -0.000416 -1.000000 -0.000430
vn -0.000416 -1.000000 -0.000430
vn -0.000416 -1.000000 -0.000430
vn -0.000416 -1.000000 -0.000430
vn -0.512784 0.858518 -0.000038
vn -0.512781 0.858503 -0.005246
vn -0.512784 0.858518 -0.000038
vn -1.000000 0.000000 -0.000149
vn -1.000000 0.000000 -0.000149
vn -0.380667 -0.924712 -0.000028
vn -0.380668 -0.924704 -0.003758
vn -0.380667 -0.924712 -0.000028
vn 0.000467 -1.000000 -0.000000
vn 0.000467 -1.000000 0.000020
vn 0.000467 -1.000000 0.000055
vn 0.000467 -1.000000 -0.000000
vn -1.000000 0.000000 0.000000
vn -0.992314 0.000000 -0.123750
vn -0.992314 0.000000 -0.123750
vn -1.000000 0.000000 0.000000
vn -0.445539 0.784476 -0.431385
vn -0.445539 0.784476 -0.431385
vn -0.445539 0.784476 -0.431385
vn -0.343677 -0.877908 -0.333411
vn 0.000000 -1.000000 0.000000
vn 0.000000 -1.000000 0.000000
vn 0.000000 -1.000000 0.000000
vn 0.000000 -1.000000 0.000000
vn 0.000000 1.000000 0.000000
vn 0.000000 1.000000 0.000000
vn 0.000000 1.000000 0.000000
vn 0.000000 1.000000 0.000000
vn 0.000000 1.000000 -0.000000
vn 0.000000 1.000000 -0.000000
vn 0.000000 1.000000 -0.000000
vn 0.000000 1.000000 -0.000000
vn 0.000000 1.000000 0.000000
vn 0.000000 1.000000 0.000000
vn 0.000000 1.000000 0.000000
vn 0.000000 1.000000 0.000000
vn 0.000000 1.000000 0.000000
vn 0.000000 1.000000 0.000000
vn 0.000000 1.000000 0.000000
vn 0.000000 1.000000 0.000000
vn 0.000000 1.000000 0.000000
vn 0.000000 1.000000 0.000000
vn 0.000000 1.000000 0.000000
vn 0.000000 1.000000 0.000000
vn 0.000000 1.000000 0.000000
vn 0.000000 1.000000 0.000000
vn 0.000000 1.000000 0.000000
vn 0.000000 1.000000 0.000000
s 1
g polySurface1
usemtl initialShadingGroup
f 27/1/1 28/2/2 3/3/3 2/4/4
s off
f 5/9/5 2/10/6 8/11/7 7/12/8
s 1
f 2/4/4 3/3/3 9/7/9 8/8/10
s 2
f 76/148/11 5/29/12 7/30/13 75/146/14
s off
f 8/31/15 9/32/16 12/33/17 11/34/18
s 3
f 75/147/19 7/37/20 10/38/21 74/145/22
s off
f 11/34/23 12/33/24 14/35/25 13/36/26
s 4
f 74/145/27 10/38/28 15/39/29 69/143/30
s off
f 13/40/31 14/41/32 17/42/33 16/43/34
s 5
f 69/144/35 15/46/36 18/47/37 68/142/38
s off
f 16/43/39 17/42/40 20/44/41 19/45/42
s 6
f 68/142/43 18/47/44 21/48/45 73/141/46
s off
f 16/25/47 19/15/48 11/21/49 13/26/50
f 21/16/51 18/27/52 15/28/53 10/22/54
f 7/12/55 8/11/56 19/15/57 21/16/58
f 19/15/59 8/11/60 11/21/61
f 7/12/62 21/16/63 10/22/64
f 22/49/65 57/115/66 58/117/67 23/50/68
f 23/51/69 58/116/70 59/119/71 24/52/72
s 7
f 24/53/73 59/118/74 60/120/75 25/54/76
s off
f 25/54/77 60/120/78 61/122/79 26/55/80
f 22/18/81 23/23/82 24/24/83 25/17/84
f 25/17/85 26/13/86 5/9/87 22/18/88
s 8
f 26/56/89 61/121/90 62/123/91 6/57/92
s 1
f 1/5/93 4/6/94 28/2/2 27/1/1
s off
f 5/9/95 26/13/96 27/14/97 2/10/98
f 26/13/99 6/19/100 1/20/101 27/14/102
s 9
f 55/58/103 56/59/104 31/60/105 30/61/106
f 30/61/106 31/60/105 36/62/107 35/63/108
s off
f 31/64/109 33/65/110 37/66/111 36/67/112
f 35/70/113 36/71/114 39/72/115 38/73/116
f 38/73/117 39/72/118 42/76/119 41/77/120
f 41/79/121 42/80/122 45/81/123 44/82/124
f 44/82/125 45/81/126 48/85/127 47/86/128
f 48/88/129 45/89/130 42/90/131 39/91/132
f 46/92/133 49/93/134 40/94/135 43/95/136
f 36/67/137 37/66/138 49/93/139 48/88/140
f 48/88/141 39/91/142 36/67/143
f 49/93/144 37/66/145 40/94/146
f 51/103/147 50/104/148 53/105/149 52/106/150
f 54/107/151 53/105/152 50/104/153 33/65/154
s 9
f 29/110/155 32/111/156 56/59/104 55/58/103
s off
f 54/107/157 33/65/158 31/64/159 56/112/160
f 56/112/161 32/113/162 34/114/163 54/107/164
f 63/124/165 50/96/166 51/97/167 58/126/168
f 59/128/169 58/125/170 51/98/171 52/99/172
f 64/129/173 59/127/174 52/100/175 53/101/176
f 65/131/177 64/129/178 53/101/179 54/102/180
s 8
f 66/132/181 65/130/182 54/108/183 34/109/184
s off
f 9/185/185 3/186/186 30/187/187 35/188/188
f 28/189/189 4/191/190 29/192/191 55/190/192
f 3/186/193 28/189/194 55/190/195 30/187/196
f 17/193/197 14/194/198 41/195/199 44/196/200
f 20/149/201 17/150/202 44/151/203 47/209/204
f 14/160/205 12/161/206 38/162/207 41/163/208
f 9/164/209 35/165/210 38/162/211 12/161/212
s 6
f 46/84/213 68/134/43 67/133/214 49/87/215
s 5
f 43/83/216 69/136/35 68/134/38 46/84/217
s 4
f 40/75/218 70/137/219 69/135/30 43/78/220
s 3
f 37/74/221 71/139/222 70/137/223 40/75/224
s 2
f 33/68/225 72/140/226 71/138/227 37/69/228
s 8
f 62/197/91 61/198/90 65/199/182 66/200/181
s off
f 63/166/229 58/167/230 57/207/231
s 7
f 59/175/74 64/176/232 60/177/75
s off
f 65/178/233 61/179/234 60/177/235 64/176/236
s 2
f 71/201/227 72/202/226 76/203/11 75/204/14
s 3
f 75/180/19 74/181/22 70/182/223 71/183/222
s 4
f 74/181/27 69/184/30 70/182/219
s 6
f 67/153/214 68/155/43 73/211/46
s off
f 63/166/237 57/207/238 76/169/239 72/205/240
f 57/168/241 22/171/242 5/172/243 76/208/244
f 50/173/245 63/206/246 72/170/247 33/174/248
f 67/153/249 73/211/250 20/149/251 47/209/252
f 73/154/253 21/156/254 19/157/255 20/212/256
f 49/158/257 67/210/258 47/152/259 48/159/260
