# This file uses centimeters as units for non-parametric coordinates.

mtllib Curtain90-obj.mtl
g default
v 1.000000 0.248877 0.000000
v 1.000000 2.200994 -0.000000
v -0.077695 0.248877 -1.089690
v -0.077695 2.200994 -1.089690
v -0.077695 1.551132 -1.089690
v 1.000000 1.551132 -0.000000
v -0.077695 1.004401 -1.089690
v 1.000000 1.004401 0.000000
v -0.077695 0.706193 -1.089690
v 1.000000 0.706193 0.000000
v -0.077695 0.448479 -1.089690
v 1.000000 0.448479 0.000000
v -0.077365 0.248877 -0.957072
v -0.077365 0.448479 -0.957072
v -0.077365 0.706193 -0.957072
v -0.077365 1.004401 -0.957072
v -0.077365 1.551132 -0.957072
v -0.077365 2.200994 -0.957072
v -0.076978 0.248877 -0.801436
v -0.076978 0.448479 -0.801436
v -0.076978 0.706193 -0.801436
v -0.076978 1.004401 -0.801436
v -0.076978 1.551132 -0.801436
v -0.076978 2.200994 -0.801436
v -0.076577 0.248877 -0.640073
v -0.076577 0.448479 -0.640073
v -0.076577 0.706193 -0.640073
v -0.076577 1.004401 -0.640073
v -0.076577 1.551132 -0.640073
v -0.076577 2.200994 -0.640073
v -0.076131 0.248877 -0.461104
v -0.076131 0.448479 -0.461104
v -0.076131 0.706193 -0.461104
v -0.076131 1.004401 -0.461104
v -0.076131 1.551132 -0.461104
v -0.076131 2.200994 -0.461104
v -0.073759 0.248877 -0.274156
v -0.073759 0.448479 -0.274156
v -0.073759 0.706193 -0.274156
v -0.073759 1.004401 -0.274156
v -0.073759 1.551132 -0.274156
v -0.073759 2.200994 -0.274156
v -0.006511 0.248877 -0.103494
v -0.006511 0.448479 -0.103494
v -0.006511 0.706193 -0.103494
v -0.006511 1.004401 -0.103494
v -0.006511 1.551132 -0.103494
v -0.006511 2.200994 -0.103494
v 0.158790 0.248877 0.000000
v 0.158790 0.448479 0.000000
v 0.158790 0.706193 0.000000
v 0.158790 1.004401 0.000000
v 0.158790 1.551132 -0.000000
v 0.158790 2.200994 -0.000000
v 0.338358 0.248877 0.000000
v 0.338358 0.448479 0.000000
v 0.338358 0.706193 0.000000
v 0.338358 1.004401 0.000000
v 0.338358 1.551132 -0.000000
v 0.338358 2.200994 -0.000000
v 0.512348 0.248877 0.000000
v 0.512348 0.448479 0.000000
v 0.512348 0.706193 0.000000
v 0.512348 1.004401 0.000000
v 0.512348 1.551132 -0.000000
v 0.512348 2.200994 -0.000000
v 0.680925 0.248877 0.000000
v 0.680925 0.448479 0.000000
v 0.680925 0.706193 0.000000
v 0.680925 1.004401 0.000000
v 0.680925 1.551132 -0.000000
v 0.680925 2.200994 -0.000000
v 0.850375 0.248877 0.000000
v 0.850375 0.448479 0.000000
v 0.850375 0.706193 0.000000
v 0.850375 1.004401 0.000000
v 0.850375 1.551132 -0.000000
v 0.850375 2.200994 -0.000000
vt 0.088124 0.610413
vt 0.088124 0.898031
vt 0.029429 0.898031
vt 0.029429 0.610413
vt 0.157006 0.610412
vt 0.157006 0.898031
vt 0.088124 0.368438
vt 0.029429 0.368438
vt 0.228422 0.610412
vt 0.228422 0.898031
vt 0.157006 0.368438
vt 0.088124 0.236455
vt 0.029429 0.236455
vt 0.307632 0.610413
vt 0.307632 0.898031
vt 0.228422 0.368438
vt 0.157006 0.236455
vt 0.088124 0.122395
vt 0.029429 0.122395
vt 0.390519 0.610412
vt 0.390519 0.898031
vt 0.307632 0.368438
vt 0.228422 0.236455
vt 0.157006 0.122395
vt 0.088124 0.034054
vt 0.029429 0.034054
vt 0.467428 0.610412
vt 0.467428 0.898031
vt 0.390519 0.368438
vt 0.307632 0.236455
vt 0.228422 0.122395
vt 0.157006 0.034054
vt 0.542291 0.610412
vt 0.542291 0.898031
vt 0.467428 0.368438
vt 0.390519 0.236455
vt 0.307632 0.122395
vt 0.228422 0.034054
vt 0.621766 0.610412
vt 0.621766 0.898031
vt 0.542292 0.368438
vt 0.467428 0.236455
vt 0.390519 0.122395
vt 0.307632 0.034054
vt 0.698771 0.610412
vt 0.698771 0.898031
vt 0.621766 0.368438
vt 0.542291 0.236455
vt 0.467428 0.122395
vt 0.390519 0.034054
vt 0.773380 0.610413
vt 0.773380 0.898031
vt 0.698771 0.368438
vt 0.621766 0.236455
vt 0.542291 0.122395
vt 0.467428 0.034054
vt 0.848376 0.610412
vt 0.848376 0.898031
vt 0.773380 0.368438
vt 0.698771 0.236455
vt 0.621766 0.122395
vt 0.542291 0.034054
vt 0.914598 0.610413
vt 0.914598 0.898031
vt 0.848376 0.368438
vt 0.773380 0.236455
vt 0.698771 0.122395
vt 0.621766 0.034054
vt 0.914598 0.368438
vt 0.848376 0.236455
vt 0.773380 0.122395
vt 0.698771 0.034054
vt 0.914598 0.236455
vt 0.848376 0.122395
vt 0.773380 0.034054
vt 0.914598 0.122395
vt 0.848376 0.034054
vt 0.914598 0.034054
vn -0.999997 0.000000 0.002486
vn -0.999997 0.000000 0.002486
vn -0.999997 0.000000 0.002486
vn -0.999997 0.000000 0.002486
vn -0.999997 0.000000 0.002486
vn -0.999997 0.000000 0.002486
vn -0.999997 0.000000 0.002486
vn -0.999997 0.000000 0.002486
vn -0.999997 0.000000 0.002486
vn -0.999997 0.000000 0.002486
vn -0.999997 0.000000 0.002486
vn -0.999997 0.000000 0.002486
vn -0.999997 0.000000 0.002488
vn -0.999997 0.000000 0.002488
vn -0.999997 0.000000 0.002488
vn -0.999997 0.000000 0.002488
vn -0.999997 0.000000 0.002488
vn -0.999997 0.000000 0.002488
vn -0.999997 0.000000 0.002491
vn -0.999997 0.000000 0.002491
vn -0.999997 0.000000 0.002491
vn -0.999997 0.000000 0.002491
vn -0.999997 0.000000 0.002491
vn -0.999997 0.000000 0.002491
vn -0.999970 0.000000 0.007699
vn -0.999970 0.000000 0.007699
vn -0.999970 0.000000 0.007699
vn -0.999970 0.000000 0.007699
vn -0.999970 0.000000 0.007699
vn -0.999970 0.000000 0.007699
vn -0.981572 0.000000 0.191094
vn -0.981572 0.000000 0.191094
vn -0.981572 0.000000 0.191094
vn -0.981572 0.000000 0.191094
vn -0.981572 0.000000 0.191094
vn -0.981572 0.000000 0.191094
vn -0.762603 0.000000 0.646867
vn -0.762602 0.000000 0.646868
vn -0.762602 0.000000 0.646868
vn -0.762602 0.000000 0.646868
vn -0.762602 0.000000 0.646868
vn -0.762602 0.000000 0.646868
vn -0.287433 0.000000 0.957801
vn -0.287433 0.000000 0.957801
vn -0.287433 0.000000 0.957801
vn -0.287433 0.000000 0.957801
vn -0.287433 0.000000 0.957801
vn -0.287433 0.000000 0.957801
vn 0.000000 0.000000 1.000000
vn -0.000000 0.000000 1.000000
vn -0.000000 0.000000 1.000000
vn 0.000000 0.000000 1.000000
vn 0.000000 0.000000 1.000000
vn 0.000000 0.000000 1.000000
vn 0.000000 0.000000 1.000000
vn 0.000000 0.000000 1.000000
vn 0.000000 0.000000 1.000000
vn 0.000000 0.000000 1.000000
vn 0.000000 0.000000 1.000000
vn 0.000000 0.000000 1.000000
vn 0.000000 0.000000 1.000000
vn 0.000000 0.000000 1.000000
vn -0.000000 0.000000 1.000000
vn -0.000000 0.000000 1.000000
vn -0.000000 0.000000 1.000000
vn -0.000000 0.000000 1.000000
vn 0.000000 0.000000 1.000000
vn 0.000000 0.000000 1.000000
vn -0.000000 0.000000 1.000000
vn -0.000000 0.000000 1.000000
vn -0.000000 0.000000 1.000000
vn -0.000000 0.000000 1.000000
vn 0.000000 0.000000 1.000000
vn 0.000000 0.000000 1.000000
vn 0.000000 0.000000 1.000000
vn -0.000000 0.000000 1.000000
vn -0.000000 0.000000 1.000000
vn -0.000000 0.000000 1.000000
s 1
g Curtain_cloth
usemtl lambert4SG
f 17/1/1 18/2/2 4/3/3 5/4/4
f 16/7/5 17/1/1 5/4/4 7/8/6
f 15/12/7 16/7/5 7/8/6 9/13/8
f 14/18/9 15/12/7 9/13/8 11/19/10
f 13/25/11 14/18/9 11/19/10 3/26/12
f 19/32/13 20/24/14 14/18/9 13/25/11
f 20/24/14 21/17/15 15/12/7 14/18/9
f 21/17/15 22/11/16 16/7/5 15/12/7
f 22/11/16 23/5/17 17/1/1 16/7/5
f 23/5/17 24/6/18 18/2/2 17/1/1
f 25/38/19 26/31/20 20/24/14 19/32/13
f 26/31/20 27/23/21 21/17/15 20/24/14
f 27/23/21 28/16/22 22/11/16 21/17/15
f 28/16/22 29/9/23 23/5/17 22/11/16
f 29/9/23 30/10/24 24/6/18 23/5/17
f 31/44/25 32/37/26 26/31/20 25/38/19
f 32/37/26 33/30/27 27/23/21 26/31/20
f 33/30/27 34/22/28 28/16/22 27/23/21
f 34/22/28 35/14/29 29/9/23 28/16/22
f 35/14/29 36/15/30 30/10/24 29/9/23
f 37/50/31 38/43/32 32/37/26 31/44/25
f 38/43/32 39/36/33 33/30/27 32/37/26
f 39/36/33 40/29/34 34/22/28 33/30/27
f 40/29/34 41/20/35 35/14/29 34/22/28
f 41/20/35 42/21/36 36/15/30 35/14/29
f 43/56/37 44/49/38 38/43/32 37/50/31
f 44/49/38 45/42/39 39/36/33 38/43/32
f 45/42/39 46/35/40 40/29/34 39/36/33
f 46/35/40 47/27/41 41/20/35 40/29/34
f 47/27/41 48/28/42 42/21/36 41/20/35
f 49/62/43 50/55/44 44/49/38 43/56/37
f 50/55/44 51/48/45 45/42/39 44/49/38
f 51/48/45 52/41/46 46/35/40 45/42/39
f 52/41/46 53/33/47 47/27/41 46/35/40
f 53/33/47 54/34/48 48/28/42 47/27/41
f 55/68/49 56/61/50 50/55/44 49/62/43
f 56/61/50 57/54/51 51/48/45 50/55/44
f 57/54/51 58/47/52 52/41/46 51/48/45
f 58/47/52 59/39/53 53/33/47 52/41/46
f 59/39/53 60/40/54 54/34/48 53/33/47
f 61/72/55 62/67/56 56/61/50 55/68/49
f 62/67/56 63/60/57 57/54/51 56/61/50
f 63/60/57 64/53/58 58/47/52 57/54/51
f 64/53/58 65/45/59 59/39/53 58/47/52
f 65/45/59 66/46/60 60/40/54 59/39/53
f 67/75/61 68/71/62 62/67/56 61/72/55
f 68/71/62 69/66/63 63/60/57 62/67/56
f 69/66/63 70/59/64 64/53/58 63/60/57
f 70/59/64 71/51/65 65/45/59 64/53/58
f 71/51/65 72/52/66 66/46/60 65/45/59
f 73/77/67 74/74/68 68/71/62 67/75/61
f 74/74/68 75/70/69 69/66/63 68/71/62
f 75/70/69 76/65/70 70/59/64 69/66/63
f 76/65/70 77/57/71 71/51/65 70/59/64
f 77/57/71 78/58/72 72/52/66 71/51/65
f 1/78/73 12/76/74 74/74/68 73/77/67
f 12/76/74 10/73/75 75/70/69 74/74/68
f 10/73/75 8/69/76 76/65/70 75/70/69
f 8/69/76 6/63/77 77/57/71 76/65/70
f 6/63/77 2/64/78 78/58/72 77/57/71
g default
v -0.121647 2.175000 -1.096062
v 0.988152 2.175000 0.043069
v -0.153241 2.292410 -1.095945
v 0.988152 2.292410 0.074664
v -0.001674 2.292410 -1.096505
v 0.988152 2.292410 -0.076905
v -0.033268 2.175000 -1.096388
v 0.988152 2.175000 -0.045311
v -0.055613 2.175000 -1.096305
v 0.988152 2.175000 -0.022965
v 0.988152 2.175000 0.020724
v -0.099302 2.175000 -1.096144
v -0.069175 2.201966 -1.096256
v 0.988152 2.201966 -0.009403
v 0.988152 2.201966 0.007162
v -0.085740 2.201966 -1.096194
v 0.044948 2.292410 -0.159320
v 0.023354 2.175000 -0.136257
v 0.008081 2.175000 -0.119946
v -0.001188 2.201966 -0.110046
v -0.012510 2.201966 -0.097954
v -0.021780 2.175000 -0.088054
v -0.037053 2.175000 -0.071743
v -0.058647 2.292410 -0.048680
v 0.001355 2.292410 -0.276688
v -0.030239 2.175000 -0.276571
v -0.052585 2.175000 -0.276489
v -0.066147 2.201966 -0.276439
v -0.082711 2.201966 -0.276378
v -0.096274 2.175000 -0.276328
v -0.118619 2.175000 -0.276245
v -0.150213 2.292410 -0.276128
v 0.161216 2.292410 -0.076905
v 0.161216 2.175000 -0.045311
v 0.161216 2.175000 -0.022965
v 0.161216 2.201966 -0.009403
v 0.161216 2.201966 0.007162
v 0.161216 2.175000 0.020724
v 0.161216 2.175000 0.043069
v 0.161216 2.292410 0.074664
vt 0.987970 0.893922
vt 0.987970 0.024587
vt 0.936487 0.024587
vt 0.936487 0.893922
vt 0.936487 0.893922
vt 0.936487 0.024587
vt 0.987970 0.024587
vt 0.987970 0.893922
vt 0.909616 0.986788
vt 0.030504 0.986788
vt 0.030504 0.979507
vt 0.909616 0.979507
vt 0.909616 0.946276
vt 0.030504 0.946276
vt 0.030504 0.956098
vt 0.909616 0.956098
vt 0.030504 0.946553
vt 0.909616 0.946553
vt 0.909616 0.956375
vt 0.030504 0.956375
vt 0.935815 0.967522
vt 0.935815 0.978650
vt 0.030504 0.967951
vt 0.909616 0.967952
vt 0.935815 0.934636
vt 0.935815 0.945764
vt 0.909616 0.968228
vt 0.030504 0.968228
vt 0.993809 0.994384
vt 0.935338 0.978650
vt 0.935338 0.967522
vt 0.948767 0.960768
vt 0.993809 0.918902
vt 0.948767 0.952518
vt 0.935338 0.945764
vt 0.935338 0.934636
vt 0.994286 0.918902
vt 0.994286 0.994384
vt 0.949244 0.960768
vt 0.949244 0.952518
vt 0.936487 0.460771
vt 0.471594 0.946276
vt 0.987970 0.460771
vt 0.471594 0.956098
vt 0.471594 0.986788
vt 0.471593 0.967952
vt 0.471594 0.968228
vt 0.471594 0.979507
vt 0.471594 0.956375
vt 0.987970 0.460771
vt 0.471594 0.946553
vt 0.936487 0.460771
vt 0.936487 0.537571
vt 0.549257 0.946276
vt 0.987970 0.537571
vt 0.549257 0.956098
vt 0.549257 0.986788
vt 0.549257 0.967952
vt 0.549257 0.968228
vt 0.549257 0.979507
vt 0.549257 0.956375
vt 0.987970 0.537571
vt 0.549257 0.946553
vt 0.936487 0.537571
vt 0.936487 0.384030
vt 0.393989 0.946276
vt 0.987970 0.384030
vt 0.393989 0.956098
vt 0.393989 0.986788
vt 0.393989 0.967951
vt 0.393989 0.968228
vt 0.393989 0.979507
vt 0.393989 0.956375
vt 0.987970 0.384030
vt 0.393989 0.946553
vt 0.936487 0.384030
vn -0.965643 -0.259847 0.003567
vn -0.962146 -0.258271 0.087011
vn -0.962749 -0.258491 0.079358
vn -0.965643 -0.259847 0.003567
vn 0.965643 -0.259847 -0.003568
vn 0.964379 -0.258771 -0.054873
vn 0.964609 -0.258902 -0.049995
vn 0.965643 -0.259847 -0.003568
vn 0.000000 -1.000000 0.000000
vn 0.000000 -1.000000 0.000000
vn 0.000000 -1.000000 0.000000
vn 0.000000 -1.000000 0.000000
vn 0.000000 -1.000000 0.000000
vn 0.000000 -1.000000 0.000000
vn 0.000000 -1.000000 0.000000
vn 0.000000 -1.000000 0.000000
vn 0.000000 -1.000000 0.000000
vn 0.000000 -1.000000 0.000000
vn 0.000000 -1.000000 0.000000
vn 0.000000 -1.000000 0.000000
vn -0.893371 -0.449308 0.003300
vn -0.892008 -0.447376 0.064628
vn -0.892449 -0.447795 0.054903
vn -0.893371 -0.449308 0.003300
vn 0.892094 -0.447649 -0.061469
vn 0.893373 -0.449304 -0.003300
vn 0.893373 -0.449304 -0.003300
vn 0.891520 -0.447172 -0.072310
vn -0.003692 -0.000000 -0.999993
vn -0.003692 -0.000000 -0.999993
vn -0.003692 -0.000000 -0.999993
vn -0.003692 -0.000000 -0.999993
vn -0.003690 -0.000000 -0.999993
vn -0.003690 -0.000000 -0.999993
vn -0.003690 -0.000000 -0.999993
vn -0.003690 -0.000000 -0.999993
vn -0.003692 0.000001 -0.999993
vn -0.003692 0.000001 -0.999993
vn -0.003692 0.000001 -0.999993
vn -0.003692 0.000001 -0.999993
vn 1.000000 0.000000 0.000000
vn 1.000000 0.000000 0.000000
vn 1.000000 0.000000 0.000000
vn 1.000000 0.000000 0.000000
vn 1.000000 0.000000 0.000000
vn 1.000000 0.000000 0.000000
vn 1.000000 0.000000 0.000000
vn 1.000000 0.000000 0.000000
vn 1.000000 0.000000 0.000000
vn 1.000000 0.000000 0.000000
vn 1.000000 0.000000 0.000000
vn 1.000000 0.000000 0.000000
vn 0.755416 -0.249199 -0.606009
vn 0.094435 -0.262094 -0.960411
vn 0.080375 -0.261908 -0.961740
vn 0.746174 -0.249077 -0.617402
vn 0.000000 -1.000000 0.000000
vn 0.000000 -1.000000 0.000000
vn 0.000000 -1.000000 0.000000
vn 0.000000 -1.000000 0.000000
vn -0.679153 -0.436473 0.590121
vn -0.692602 -0.436617 0.574167
vn -0.100203 -0.452110 0.886316
vn -0.077502 -0.451873 0.888709
vn 0.000000 -1.000000 0.000000
vn 0.000000 -1.000000 0.000000
vn 0.000000 -1.000000 0.000000
vn 0.000000 -1.000000 0.000000
vn 0.082734 -0.451631 -0.888361
vn 0.673556 -0.438040 -0.595351
vn 0.686162 -0.438115 -0.580721
vn 0.105530 -0.451726 -0.885893
vn 0.000000 -1.000000 0.000000
vn 0.000000 -1.000000 0.000000
vn 0.000000 -1.000000 0.000000
vn 0.000000 -1.000000 0.000000
vn -0.721757 -0.253455 0.644071
vn -0.728851 -0.253458 0.636031
vn -0.117317 -0.261136 0.958147
vn -0.103051 -0.261172 0.959776
vn 0.000000 -0.259849 -0.965649
vn 0.000000 -0.259849 -0.965649
vn 0.000000 -1.000000 0.000000
vn 0.000000 -1.000000 0.000000
vn 0.000000 -0.449304 0.893379
vn 0.000000 -0.449304 0.893379
vn 0.000000 -1.000000 0.000000
vn 0.000000 -1.000000 0.000000
vn 0.000000 -0.449304 -0.893379
vn 0.000000 -0.449304 -0.893379
vn 0.000000 -1.000000 0.000000
vn 0.000000 -1.000000 0.000000
vn 0.000000 -0.259849 0.965649
vn 0.000000 -0.259849 0.965649
s 1
g Curtain_runner
usemtl lambert4SG
f 79/79/79 109/140/80 110/142/81 81/82/82
s 2
f 83/83/83 103/131/84 104/133/85 85/86/86
s 3
f 91/87/87 106/135/88 107/138/89 94/90/90
s 4
f 85/91/91 104/132/92 105/134/93 87/94/94
s 5
f 109/141/95 79/96/96 90/97/97 108/139/98
s 6
f 87/94/99 105/134/100 106/136/101 91/102/102
s 7
f 108/139/103 90/97/104 94/105/105 107/137/106
s off
f 83/107/107 85/108/108 87/109/109 91/110/110
f 94/112/111 90/113/112 79/114/113 81/111/114
f 81/111/115 83/107/116 91/110/117 94/112/118
f 84/115/119 82/116/120 93/117/121 92/118/122
f 82/116/123 80/100/124 89/99/125 93/117/126
f 92/118/127 88/104/128 86/103/129 84/115/130
s 2
f 95/119/131 111/143/132 112/145/133 96/121/134
s 4
f 97/122/135 96/120/136 112/144/137 113/146/138
s 6
f 98/124/139 97/122/140 113/146/141 114/148/142
s 3
f 99/126/143 98/123/144 114/147/145 115/150/146
s 7
f 116/151/147 100/127/148 99/125/149 115/149/150
s 5
f 117/153/151 101/129/152 100/127/153 116/151/154
s 1
f 102/130/155 101/128/156 117/152/157 118/154/158
s 2
f 103/131/84 95/119/131 96/121/134 104/133/85
s 4
f 105/134/93 104/132/92 96/120/136 97/122/135
s 6
f 106/136/101 105/134/100 97/122/140 98/124/139
s 3
f 107/138/89 106/135/88 98/123/144 99/126/143
s 7
f 100/127/148 108/139/103 107/137/106 99/125/149
s 5
f 101/129/152 109/141/95 108/139/98 100/127/153
s 1
f 110/142/81 109/140/80 101/128/156 102/130/155
s 2
f 111/143/132 84/84/159 86/85/160 112/145/133
s 4
f 113/146/138 112/144/137 86/92/161 88/93/162
s 6
f 114/148/142 113/146/141 88/93/163 92/101/164
s 3
f 115/150/146 114/147/145 92/88/165 93/89/166
s 7
f 89/98/167 116/151/147 115/149/150 93/106/168
s 5
f 80/95/169 117/153/151 116/151/154 89/98/170
s 1
f 118/154/158 117/152/157 80/80/171 82/81/172
