# This file uses centimeters as units for non-parametric coordinates.

mtllib Curtain-obj.mtl
g default
v 0.987568 0.248877 0.000000
v 0.987568 2.200994 -0.000000
v -1.012432 0.248877 0.000000
v -1.012432 2.200994 -0.000000
v -1.012432 1.551132 -0.000000
v 0.987568 1.551132 -0.000000
v -1.012432 1.004401 0.000000
v 0.987568 1.004401 0.000000
v -1.012432 0.706193 0.000000
v 0.987568 0.706193 0.000000
v -1.012432 0.448479 0.000000
v 0.987568 0.448479 0.000000
v -0.879814 0.248877 0.000000
v -0.879814 0.448479 0.000000
v -0.879814 0.706193 0.000000
v -0.879814 1.004401 0.000000
v -0.879814 1.551132 -0.000000
v -0.879814 2.200994 -0.000000
v -0.724178 0.248877 0.000000
v -0.724178 0.448479 0.000000
v -0.724178 0.706193 0.000000
v -0.724178 1.004401 0.000000
v -0.724178 1.551132 -0.000000
v -0.724178 2.200994 -0.000000
v -0.562815 0.248877 0.000000
v -0.562815 0.448479 0.000000
v -0.562815 0.706193 0.000000
v -0.562815 1.004401 0.000000
v -0.562815 1.551132 -0.000000
v -0.562815 2.200994 -0.000000
v -0.383845 0.248877 0.000000
v -0.383845 0.448479 0.000000
v -0.383845 0.706193 0.000000
v -0.383845 1.004401 0.000000
v -0.383845 1.551132 -0.000000
v -0.383845 2.200994 -0.000000
v -0.196566 0.248877 0.000000
v -0.196566 0.448479 0.000000
v -0.196566 0.706193 0.000000
v -0.196566 1.004401 0.000000
v -0.196566 1.551132 -0.000000
v -0.196566 2.200994 -0.000000
v -0.022794 0.248877 0.000000
v -0.022794 0.448479 0.000000
v -0.022794 0.706193 0.000000
v -0.022794 1.004401 0.000000
v -0.022794 1.551132 -0.000000
v -0.022794 2.200994 -0.000000
v 0.146358 0.248877 0.000000
v 0.146358 0.448479 0.000000
v 0.146358 0.706193 0.000000
v 0.146358 1.004401 0.000000
v 0.146358 1.551132 -0.000000
v 0.146358 2.200994 -0.000000
v 0.325926 0.248877 0.000000
v 0.325926 0.448479 0.000000
v 0.325926 0.706193 0.000000
v 0.325926 1.004401 0.000000
v 0.325926 1.551132 -0.000000
v 0.325926 2.200994 -0.000000
v 0.499916 0.248877 0.000000
v 0.499916 0.448479 0.000000
v 0.499916 0.706193 0.000000
v 0.499916 1.004401 0.000000
v 0.499916 1.551132 -0.000000
v 0.499916 2.200994 -0.000000
v 0.668493 0.248877 0.000000
v 0.668493 0.448479 0.000000
v 0.668493 0.706193 0.000000
v 0.668493 1.004401 0.000000
v 0.668493 1.551132 -0.000000
v 0.668493 2.200994 -0.000000
v 0.837943 0.248877 0.000000
v 0.837943 0.448479 0.000000
v 0.837943 0.706193 0.000000
v 0.837943 1.004401 0.000000
v 0.837943 1.551132 -0.000000
v 0.837943 2.200994 -0.000000
vt 0.163833 0.537417
vt 0.163833 0.797313
vt 0.110796 0.797313
vt 0.110795 0.537417
vt 0.226076 0.537417
vt 0.226076 0.797313
vt 0.163833 0.318765
vt 0.110796 0.318765
vt 0.290609 0.537417
vt 0.290609 0.797313
vt 0.226076 0.318765
vt 0.163833 0.199504
vt 0.110796 0.199504
vt 0.362184 0.537417
vt 0.362184 0.797313
vt 0.290609 0.318765
vt 0.226076 0.199504
vt 0.163833 0.096437
vt 0.110796 0.096437
vt 0.437082 0.537417
vt 0.437082 0.797313
vt 0.362184 0.318765
vt 0.290609 0.199504
vt 0.226076 0.096437
vt 0.163833 0.016611
vt 0.110796 0.016611
vt 0.506577 0.537417
vt 0.506578 0.797313
vt 0.437082 0.318765
vt 0.362184 0.199504
vt 0.290609 0.096437
vt 0.226076 0.016611
vt 0.574226 0.537417
vt 0.574226 0.797313
vt 0.506577 0.318765
vt 0.437082 0.199504
vt 0.362184 0.096437
vt 0.290609 0.016611
vt 0.646040 0.537417
vt 0.646040 0.797313
vt 0.574226 0.318765
vt 0.506578 0.199504
vt 0.437082 0.096437
vt 0.362184 0.016611
vt 0.715623 0.537417
vt 0.715623 0.797313
vt 0.646040 0.318765
vt 0.574226 0.199504
vt 0.506578 0.096437
vt 0.437082 0.016611
vt 0.783041 0.537417
vt 0.783041 0.797313
vt 0.715623 0.318765
vt 0.646040 0.199504
vt 0.574226 0.096437
vt 0.506577 0.016611
vt 0.850808 0.537417
vt 0.850808 0.797313
vt 0.783041 0.318765
vt 0.715623 0.199504
vt 0.646040 0.096437
vt 0.574226 0.016611
vt 0.910647 0.537417
vt 0.910647 0.797313
vt 0.850808 0.318765
vt 0.783041 0.199504
vt 0.715623 0.096437
vt 0.646040 0.016611
vt 0.910647 0.318765
vt 0.850808 0.199504
vt 0.783041 0.096437
vt 0.715623 0.016611
vt 0.910647 0.199504
vt 0.850808 0.096437
vt 0.783041 0.016611
vt 0.910647 0.096437
vt 0.850808 0.016611
vt 0.910647 0.016611
vn 0.000000 0.000000 1.000000
vn 0.000000 0.000000 1.000000
vn -0.000000 0.000000 1.000000
vn -0.000000 0.000000 1.000000
vn -0.000000 0.000000 1.000000
vn -0.000000 0.000000 1.000000
vn -0.000000 0.000000 1.000000
vn -0.000000 0.000000 1.000000
vn -0.000000 0.000000 1.000000
vn -0.000000 0.000000 1.000000
vn -0.000000 0.000000 1.000000
vn -0.000000 0.000000 1.000000
vn -0.000000 0.000000 1.000000
vn -0.000000 0.000000 1.000000
vn -0.000000 0.000000 1.000000
vn 0.000000 0.000000 1.000000
vn 0.000000 0.000000 1.000000
vn 0.000000 0.000000 1.000000
vn 0.000000 0.000000 1.000000
vn -0.000000 0.000000 1.000000
vn -0.000000 0.000000 1.000000
vn -0.000000 0.000000 1.000000
vn -0.000000 0.000000 1.000000
vn 0.000000 0.000000 1.000000
vn 0.000000 0.000000 1.000000
vn 0.000000 0.000000 1.000000
vn -0.000000 0.000000 1.000000
vn 0.000000 0.000000 1.000000
vn -0.000000 0.000000 1.000000
vn 0.000000 0.000000 1.000000
vn 0.000000 0.000000 1.000000
vn 0.000000 0.000000 1.000000
vn 0.000000 0.000000 1.000000
vn 0.000000 0.000000 1.000000
vn 0.000000 0.000000 1.000000
vn 0.000000 0.000000 1.000000
vn -0.000000 0.000000 1.000000
vn 0.000000 0.000000 1.000000
vn 0.000000 0.000000 1.000000
vn 0.000000 0.000000 1.000000
vn -0.000000 0.000000 1.000000
vn 0.000000 0.000000 1.000000
vn -0.000000 0.000000 1.000000
vn -0.000000 0.000000 1.000000
vn 0.000000 0.000000 1.000000
vn 0.000000 0.000000 1.000000
vn 0.000000 0.000000 1.000000
vn 0.000000 0.000000 1.000000
vn 0.000000 0.000000 1.000000
vn -0.000000 0.000000 1.000000
vn -0.000000 0.000000 1.000000
vn 0.000000 0.000000 1.000000
vn 0.000000 0.000000 1.000000
vn 0.000000 0.000000 1.000000
vn 0.000000 0.000000 1.000000
vn 0.000000 0.000000 1.000000
vn 0.000000 0.000000 1.000000
vn 0.000000 0.000000 1.000000
vn 0.000000 0.000000 1.000000
vn 0.000000 0.000000 1.000000
vn 0.000000 0.000000 1.000000
vn 0.000000 0.000000 1.000000
vn -0.000000 0.000000 1.000000
vn -0.000000 0.000000 1.000000
vn -0.000000 0.000000 1.000000
vn -0.000000 0.000000 1.000000
vn 0.000000 0.000000 1.000000
vn 0.000000 0.000000 1.000000
vn -0.000000 0.000000 1.000000
vn -0.000000 0.000000 1.000000
vn -0.000000 0.000000 1.000000
vn -0.000000 0.000000 1.000000
vn 0.000000 0.000000 1.000000
vn 0.000000 0.000000 1.000000
vn 0.000000 0.000000 1.000000
vn -0.000000 0.000000 1.000000
vn -0.000000 0.000000 1.000000
vn -0.000000 0.000000 1.000000
s 1
g Curtain_cloth
usemtl initialShadingGroup
f 17/1/1 18/2/2 4/3/3 5/4/4
f 16/7/5 17/1/1 5/4/4 7/8/6
f 15/12/7 16/7/5 7/8/6 9/13/8
f 14/18/9 15/12/7 9/13/8 11/19/10
f 13/25/11 14/18/9 11/19/10 3/26/12
f 19/32/13 20/24/14 14/18/9 13/25/11
f 20/24/14 21/17/15 15/12/7 14/18/9
f 21/17/15 22/11/16 16/7/5 15/12/7
f 22/11/16 23/5/17 17/1/1 16/7/5
f 23/5/17 24/6/18 18/2/2 17/1/1
f 25/38/19 26/31/20 20/24/14 19/32/13
f 26/31/20 27/23/21 21/17/15 20/24/14
f 27/23/21 28/16/22 22/11/16 21/17/15
f 28/16/22 29/9/23 23/5/17 22/11/16
f 29/9/23 30/10/24 24/6/18 23/5/17
f 31/44/25 32/37/26 26/31/20 25/38/19
f 32/37/26 33/30/27 27/23/21 26/31/20
f 33/30/27 34/22/28 28/16/22 27/23/21
f 34/22/28 35/14/29 29/9/23 28/16/22
f 35/14/29 36/15/30 30/10/24 29/9/23
f 37/50/31 38/43/32 32/37/26 31/44/25
f 38/43/32 39/36/33 33/30/27 32/37/26
f 39/36/33 40/29/34 34/22/28 33/30/27
f 40/29/34 41/20/35 35/14/29 34/22/28
f 41/20/35 42/21/36 36/15/30 35/14/29
f 43/56/37 44/49/38 38/43/32 37/50/31
f 44/49/38 45/42/39 39/36/33 38/43/32
f 45/42/39 46/35/40 40/29/34 39/36/33
f 46/35/40 47/27/41 41/20/35 40/29/34
f 47/27/41 48/28/42 42/21/36 41/20/35
f 49/62/43 50/55/44 44/49/38 43/56/37
f 50/55/44 51/48/45 45/42/39 44/49/38
f 51/48/45 52/41/46 46/35/40 45/42/39
f 52/41/46 53/33/47 47/27/41 46/35/40
f 53/33/47 54/34/48 48/28/42 47/27/41
f 55/68/49 56/61/50 50/55/44 49/62/43
f 56/61/50 57/54/51 51/48/45 50/55/44
f 57/54/51 58/47/52 52/41/46 51/48/45
f 58/47/52 59/39/53 53/33/47 52/41/46
f 59/39/53 60/40/54 54/34/48 53/33/47
f 61/72/55 62/67/56 56/61/50 55/68/49
f 62/67/56 63/60/57 57/54/51 56/61/50
f 63/60/57 64/53/58 58/47/52 57/54/51
f 64/53/58 65/45/59 59/39/53 58/47/52
f 65/45/59 66/46/60 60/40/54 59/39/53
f 67/75/61 68/71/62 62/67/56 61/72/55
f 68/71/62 69/66/63 63/60/57 62/67/56
f 69/66/63 70/59/64 64/53/58 63/60/57
f 70/59/64 71/51/65 65/45/59 64/53/58
f 71/51/65 72/52/66 66/46/60 65/45/59
f 73/77/67 74/74/68 68/71/62 67/75/61
f 74/74/68 75/70/69 69/66/63 68/71/62
f 75/70/69 76/65/70 70/59/64 69/66/63
f 76/65/70 77/57/71 71/51/65 70/59/64
f 77/57/71 78/58/72 72/52/66 71/51/65
f 1/78/73 12/76/74 74/74/68 73/77/67
f 12/76/74 10/73/75 75/70/69 74/74/68
f 10/73/75 8/69/76 76/65/70 75/70/69
f 8/69/76 6/63/77 77/57/71 76/65/70
f 6/63/77 2/64/78 78/58/72 77/57/71
g default
v -1.011848 2.175000 0.043069
v 0.988152 2.175000 0.043069
v -1.011848 2.292410 0.074664
v 0.988152 2.292410 0.074664
v -1.011848 2.292410 -0.076905
v 0.988152 2.292410 -0.076905
v -1.011848 2.175000 -0.045311
v 0.988152 2.175000 -0.045311
v -1.011848 2.175000 -0.022965
v 0.988152 2.175000 -0.022965
v 0.988152 2.175000 0.020724
v -1.011848 2.175000 0.020724
v -1.011848 2.201966 -0.009403
v 0.988152 2.201966 -0.009403
v 0.988152 2.201966 0.007162
v -1.011848 2.201966 0.007162
vt 0.987376 0.874019
vt 0.987376 0.005493
vt 0.937046 0.005493
vt 0.937046 0.874019
vt 0.937046 0.874019
vt 0.937046 0.005493
vt 0.987376 0.005493
vt 0.987376 0.874019
vt 0.881726 0.985234
vt 0.057200 0.985234
vt 0.057200 0.976984
vt 0.881726 0.976984
vt 0.055182 0.946606
vt 0.906276 0.946606
vt 0.906276 0.957734
vt 0.055182 0.957734
vt 0.906276 0.957826
vt 0.055182 0.957826
vt 0.055182 0.946606
vt 0.906276 0.946606
vt 0.026631 0.956051
vt 0.901228 0.956051
vt 0.901228 0.969480
vt 0.026631 0.969480
vt 0.901228 0.956383
vt 0.026631 0.956383
vt 0.026631 0.969812
vt 0.901228 0.969812
vt 0.994415 0.994844
vt 0.935944 0.979110
vt 0.935944 0.967981
vt 0.949373 0.961227
vt 0.994415 0.919362
vt 0.949373 0.952978
vt 0.935944 0.946224
vt 0.935944 0.935096
vt 0.995103 0.919362
vt 0.995103 0.994844
vt 0.950061 0.961227
vt 0.950061 0.952978
vt 0.936631 0.979110
vt 0.936631 0.967981
vt 0.936631 0.946224
vt 0.936631 0.935096
vn 0.000000 -0.259849 0.965649
vn 0.000000 -0.259849 0.965649
vn 0.000000 -0.259849 0.965649
vn 0.000000 -0.259849 0.965649
vn 0.000000 -0.259849 -0.965649
vn 0.000000 -0.259849 -0.965649
vn 0.000000 -0.259849 -0.965649
vn 0.000000 -0.259849 -0.965649
vn 0.000000 -1.000000 0.000000
vn 0.000000 -1.000000 0.000000
vn 0.000000 -1.000000 0.000000
vn 0.000000 -1.000000 0.000000
vn 0.000000 -1.000000 0.000000
vn 0.000000 -1.000000 0.000000
vn 0.000000 -1.000000 0.000000
vn 0.000000 -1.000000 0.000000
vn 0.000000 -1.000000 0.000000
vn 0.000000 -1.000000 0.000000
vn 0.000000 -1.000000 0.000000
vn 0.000000 -1.000000 0.000000
vn 0.000000 -0.449304 0.893379
vn 0.000000 -0.449304 0.893379
vn 0.000000 -0.449304 0.893379
vn 0.000000 -0.449304 0.893379
vn 0.000000 -0.449304 -0.893379
vn 0.000000 -0.449304 -0.893379
vn 0.000000 -0.449304 -0.893379
vn 0.000000 -0.449304 -0.893379
vn -1.000000 0.000000 0.000000
vn -1.000000 0.000000 0.000000
vn -1.000000 0.000000 0.000000
vn -1.000000 0.000000 0.000000
vn -1.000000 0.000000 0.000000
vn -1.000000 0.000000 0.000000
vn -1.000000 0.000000 0.000000
vn -1.000000 0.000000 0.000000
vn -1.000000 0.000000 0.000000
vn -1.000000 0.000000 0.000000
vn -1.000000 0.000000 0.000000
vn -1.000000 0.000000 0.000000
vn 1.000000 0.000000 0.000000
vn 1.000000 0.000000 0.000000
vn 1.000000 0.000000 0.000000
vn 1.000000 0.000000 0.000000
vn 1.000000 0.000000 0.000000
vn 1.000000 0.000000 0.000000
vn 1.000000 0.000000 0.000000
vn 1.000000 0.000000 0.000000
vn 1.000000 0.000000 0.000000
vn 1.000000 0.000000 0.000000
vn 1.000000 0.000000 0.000000
vn 1.000000 0.000000 0.000000
s off
g Curtain_runner
usemtl initialShadingGroup
f 79/79/79 80/80/80 82/81/81 81/82/82
f 83/83/83 84/84/84 86/85/85 85/86/86
f 91/87/87 92/88/88 93/89/89 94/90/90
f 85/91/91 86/92/92 88/93/93 87/94/94
f 80/95/95 79/96/96 90/97/97 89/98/98
f 87/99/99 88/100/100 92/101/101 91/102/102
f 89/103/103 90/104/104 94/105/105 93/106/106
f 83/107/107 85/108/108 87/109/109 91/110/110
f 94/112/111 90/113/112 79/114/113 81/111/114
f 81/111/115 83/107/116 91/110/117 94/112/118
f 84/115/119 82/116/120 93/117/121 92/118/122
f 82/116/123 80/119/124 89/120/125 93/117/126
f 92/118/127 88/121/128 86/122/129 84/115/130
