# This file uses centimeters as units for non-parametric coordinates.

mtllib Plant-obj.mtl
g default
v -0.250000 0.000000 0.250000
v -0.211803 0.000000 0.250000
v 0.211803 0.000000 0.250000
v 0.250000 0.000000 0.250000
v -0.250000 0.042591 0.250000
v -0.211803 0.042591 0.250000
v 0.211803 0.042591 0.250000
v 0.250000 0.042591 0.250000
v -0.250000 0.500000 0.250000
v -0.211803 0.500000 0.250000
v 0.211803 0.500000 0.250000
v 0.250000 0.500000 0.250000
v -0.250000 0.500000 0.210847
v -0.234902 0.513261 0.234902
v 0.234902 0.513261 0.234902
v 0.250000 0.500000 0.210847
v -0.250000 0.500000 -0.210847
v -0.234902 0.513261 -0.234902
v 0.234902 0.513261 -0.234902
v 0.250000 0.500000 -0.210847
v -0.250000 0.500000 -0.250000
v -0.211803 0.500000 -0.250000
v 0.211803 0.500000 -0.250000
v 0.250000 0.500000 -0.250000
v -0.250000 0.042591 -0.250000
v -0.211803 0.042591 -0.250000
v 0.211803 0.042591 -0.250000
v 0.250000 0.042591 -0.250000
v -0.250000 0.000000 -0.250000
v -0.211803 0.000000 -0.250000
v 0.211803 0.000000 -0.250000
v 0.250000 0.000000 -0.250000
v -0.250000 0.000000 -0.210847
v -0.211803 0.000000 -0.210847
v 0.211803 0.000000 -0.210847
v 0.250000 0.000000 -0.210847
v -0.250000 0.000000 0.210847
v -0.211803 0.000000 0.210847
v 0.211803 0.000000 0.210847
v 0.250000 0.000000 0.210847
v 0.250000 0.042591 -0.210847
v 0.250000 0.042591 0.210847
v -0.250000 0.042591 -0.210847
v -0.250000 0.042591 0.210847
v -0.215665 0.513261 0.215665
v 0.215665 0.513261 0.215665
v 0.215665 0.513261 -0.215665
v -0.215665 0.513261 -0.215665
v -0.193034 0.328087 0.193034
v 0.193034 0.328087 0.193034
v 0.193034 0.328087 -0.193034
v -0.193034 0.328087 -0.193034
v -0.272245 -0.001895 0.272245
v -0.230650 -0.001895 0.272245
v -0.230650 0.044486 0.272245
v -0.272245 0.044486 0.272245
v 0.230650 -0.001895 0.272245
v 0.230650 0.044486 0.272245
v 0.272245 -0.001895 0.272245
v 0.272245 0.044486 0.272245
v -0.272245 0.044486 -0.272245
v -0.230650 0.044486 -0.272245
v -0.230650 -0.001895 -0.272245
v -0.272245 -0.001895 -0.272245
v 0.230650 0.044486 -0.272245
v 0.230650 -0.001895 -0.272245
v 0.272245 0.044486 -0.272245
v 0.272245 -0.001895 -0.272245
v 0.272245 -0.001895 -0.229608
v 0.272245 0.044486 -0.229608
v 0.272245 -0.001895 0.229608
v 0.272245 0.044486 0.229608
v -0.272245 -0.001895 -0.229608
v -0.272245 0.044486 -0.229608
v -0.272245 -0.001895 0.229608
v -0.272245 0.044486 0.229608
v -0.216010 0.401365 0.206991
v -0.076010 0.401365 0.206991
v 0.063990 0.401365 0.206991
v 0.203990 0.401365 0.206991
v -0.216010 0.401365 0.066991
v -0.076010 0.375785 0.066991
v 0.063990 0.375785 0.066991
v 0.203990 0.401365 0.066991
v -0.216010 0.401365 -0.073009
v -0.076010 0.375785 -0.073009
v 0.063990 0.375785 -0.073009
v 0.203990 0.401365 -0.073009
v -0.216010 0.401365 -0.213009
v -0.076010 0.401365 -0.213009
v 0.063990 0.401365 -0.213009
v 0.203990 0.401365 -0.213009
v -0.032811 0.376992 -0.028297
v 0.013436 0.376992 -0.028297
v -0.086850 0.497622 -0.110173
v 0.067476 0.497622 -0.110173
v -0.107562 0.541721 -0.269355
v 0.088188 0.541721 -0.269355
v -0.077531 0.438212 -0.397770
v 0.058157 0.438212 -0.397770
v -0.009687 0.376992 -0.442691
v -0.007140 0.376992 -0.017848
v 0.025547 0.376992 0.029636
v 0.038732 0.527356 -0.131201
v 0.147806 0.527356 0.027253
v 0.187533 0.582326 -0.264973
v 0.325885 0.582326 -0.063987
v 0.340609 0.453303 -0.324900
v 0.436510 0.453303 -0.185582
v 0.434681 0.376992 -0.286990
v -0.043086 0.376992 0.029311
v -0.010748 0.376992 -0.018412
v -0.165359 0.527356 0.027823
v -0.057449 0.527356 -0.131425
v -0.344102 0.582326 -0.081925
v -0.207225 0.582326 -0.264104
v -0.455614 0.453303 -0.182892
v -0.360735 0.453303 -0.322908
v -0.454528 0.376992 -0.284310
v 0.062976 0.376992 0.051784
v 0.043469 0.376992 0.006077
v 0.004851 0.506616 0.139727
v -0.060244 0.506616 -0.012796
v -0.143735 0.554004 0.227340
v -0.226303 0.554004 0.033877
v -0.283317 0.489643 0.251826
v -0.340550 0.489643 0.117723
v -0.332642 0.376992 0.203722
v 0.028072 0.376992 0.002851
v -0.020542 0.376992 0.024158
v 0.122597 0.515439 0.064020
v -0.039625 0.515439 0.135120
v 0.217708 0.566052 0.221805
v 0.011941 0.566052 0.311990
v 0.245303 0.447255 0.370627
v 0.102672 0.447255 0.433141
v 0.194683 0.376992 0.449103
v 0.039412 0.462639 0.010794
v 0.017669 0.462639 0.059215
v 0.140085 0.608207 -0.011987
v 0.067532 0.608207 0.149591
v 0.312223 0.673377 0.039249
v 0.220196 0.673377 0.244199
v 0.440850 0.566841 0.134787
v 0.377059 0.566841 0.276852
v 0.460998 0.500961 0.229189
v 0.016388 0.373605 0.008352
v 0.007464 0.371217 -0.043916
v 0.010360 0.542842 0.064628
v -0.019417 0.534870 -0.109788
v -0.120239 0.625734 0.104964
v -0.158010 0.615623 -0.116270
v -0.263238 0.560437 0.103855
v -0.289420 0.553428 -0.028255
v -0.324592 0.478856 0.042111
vt 0.786840 0.920391
vt 0.726732 0.920391
vt 0.726731 0.852910
vt 0.786840 0.852910
vt 0.079346 0.920391
vt 0.079346 0.852910
vt 0.019238 0.920391
vt 0.019238 0.852910
vt 0.018304 0.650917
vt 0.018304 0.597198
vt 0.726105 0.754926
vt 0.602441 0.650917
vt 0.018304 0.066573
vt 0.603954 0.066573
vt 0.018304 0.012855
vt 0.603954 0.012855
vt 0.001611 0.784877
vt 0.765775 0.784877
vt 0.790285 0.754926
vt 0.790284 0.819225
vt 0.001611 0.784877
vt 0.726105 0.754926
vt 0.001611 0.784877
vt 0.790284 0.819225
vt 0.032838 0.819225
vt 0.032838 0.819225
vt 0.726105 0.754926
vt 0.790285 0.754926
vt 0.001611 0.784877
vt 0.032838 0.819225
vt 0.001611 0.784877
vt 0.032838 0.819225
vt 0.790284 0.819225
vt 0.726105 0.754926
vt 0.790285 0.754926
vt 0.790284 0.819225
vt 0.726105 0.754926
vt 0.790285 0.754926
vt 0.771973 0.124720
vt 0.877574 0.124720
vt 0.877574 0.230320
vt 0.771973 0.230320
vt 0.603954 0.012855
vt 0.603954 0.066573
vt 0.018304 0.066573
vt 0.018305 0.012855
vt 0.603954 0.597198
vt 0.018304 0.597198
vt 0.603954 0.650917
vt 0.018304 0.650917
vt 0.019079 0.853575
vt 0.079187 0.853575
vt 0.079187 0.921057
vt 0.019078 0.921057
vt 0.726573 0.853576
vt 0.726572 0.921057
vt 0.786681 0.853575
vt 0.786681 0.921057
vt 0.666194 0.549911
vt 0.672529 0.549911
vt 0.672529 0.556404
vt 0.666194 0.556404
vt 0.662506 0.546222
vt 0.669403 0.546222
vt 0.742774 0.549911
vt 0.742774 0.556403
vt 0.672529 0.626331
vt 0.666194 0.626331
vt 0.662506 0.553292
vt 0.745899 0.546222
vt 0.749108 0.549911
vt 0.749108 0.556404
vt 0.742774 0.626331
vt 0.672529 0.632824
vt 0.666194 0.632824
vt 0.662506 0.629443
vt 0.752797 0.546222
vt 0.752797 0.553292
vt 0.749108 0.626331
vt 0.742774 0.632824
vt 0.669403 0.636513
vt 0.662506 0.636513
vt 0.752797 0.629443
vt 0.749108 0.632824
vt 0.745899 0.636513
vt 0.752797 0.636513
vt 0.079187 0.921057
vt 0.019078 0.921057
vt 0.019079 0.853575
vt 0.079187 0.853575
vt 0.726572 0.921057
vt 0.726572 0.853575
vt 0.786681 0.921057
vt 0.786681 0.853576
vt 0.018304 0.066573
vt 0.018304 0.012855
vt 0.603954 0.012855
vt 0.603954 0.066573
vt 0.018304 0.597198
vt 0.603954 0.597198
vt 0.018304 0.650917
vt 0.603954 0.650917
vt 0.786681 0.921057
vt 0.726572 0.921057
vt 0.726572 0.853575
vt 0.786681 0.853576
vt 0.079187 0.921057
vt 0.079187 0.853575
vt 0.019079 0.921057
vt 0.019078 0.853575
vt 0.018304 0.650917
vt 0.018304 0.597198
vt 0.603954 0.597198
vt 0.603954 0.650917
vt 0.018304 0.066573
vt 0.603954 0.066573
vt 0.018304 0.012855
vt 0.603954 0.012855
vt 0.783632 0.726623
vt 0.783632 0.381853
vt 0.634492 0.399942
vt 0.634492 0.708534
vt 0.783632 0.381853
vt 0.783632 0.726623
vt 0.634492 0.708534
vt 0.634492 0.399942
vt 0.783632 0.381853
vt 0.783632 0.726623
vt 0.634492 0.708534
vt 0.634492 0.399942
vt 0.783632 0.381853
vt 0.783632 0.726623
vt 0.634492 0.708534
vt 0.634492 0.399942
vt 0.091903 0.975883
vt 0.776917 0.975883
vt 0.809784 0.939988
vt 0.064183 0.939988
vt 0.714944 0.975883
vt 0.742664 0.939988
vt 0.714944 0.975883
vt 0.742664 0.939988
vt 0.091903 0.975883
vt 0.064183 0.939988
vt 0.776917 0.975883
vt 0.809784 0.939988
vt 0.776917 0.975883
vt 0.809784 0.939988
vt 0.091903 0.975883
vt 0.064183 0.939988
vt 0.714944 0.975883
vt 0.742664 0.939988
vt 0.714944 0.975883
vt 0.742664 0.939988
vt 0.091903 0.975883
vt 0.064183 0.939988
vt 0.776917 0.975882
vt 0.809784 0.939988
vt 0.034054 0.975883
vt 0.001187 0.939988
vt 0.034054 0.975883
vt 0.001187 0.939989
vt 0.034054 0.975883
vt 0.001187 0.939988
vt 0.034054 0.975883
vt 0.001187 0.939989
vt 0.765775 0.784877
vt 0.728059 0.819225
vt 0.039108 0.754926
vt 0.765775 0.784877
vt 0.765775 0.784877
vt 0.728060 0.819225
vt 0.039108 0.754926
vt 0.765775 0.784877
vt 0.728059 0.819225
vt 0.039108 0.754926
vt 0.765775 0.784877
vt 0.765775 0.784877
vt 0.728059 0.819225
vt 0.726105 0.754926
vt 0.657229 0.012801
vt 0.767978 0.012801
vt 0.769227 0.124799
vt 0.657229 0.123550
vt 0.878727 0.012801
vt 0.877478 0.124799
vt 0.989476 0.012801
vt 0.989476 0.123550
vt 0.769227 0.233050
vt 0.657229 0.234299
vt 0.877478 0.233050
vt 0.989476 0.234299
vt 0.767978 0.345048
vt 0.657229 0.345048
vt 0.878727 0.345048
vt 0.989476 0.345048
vt 0.877821 0.361980
vt 0.922555 0.361980
vt 0.974827 0.516382
vt 0.825550 0.516382
vt 0.994861 0.670785
vt 0.805515 0.670785
vt 0.981162 0.825187
vt 0.819214 0.825187
vt 0.900188 0.979589
vt 0.877821 0.361980
vt 0.922555 0.361980
vt 0.974827 0.516382
vt 0.825550 0.516382
vt 0.994861 0.670785
vt 0.805515 0.670785
vt 0.981162 0.825187
vt 0.819214 0.825187
vt 0.900188 0.979589
vt 0.877821 0.361980
vt 0.922555 0.361980
vt 0.974827 0.516382
vt 0.825550 0.516382
vt 0.994861 0.670785
vt 0.805515 0.670785
vt 0.981162 0.825187
vt 0.819214 0.825187
vt 0.900188 0.979589
vt 0.877821 0.361980
vt 0.922555 0.361980
vt 0.974827 0.516382
vt 0.825550 0.516382
vt 0.994861 0.670785
vt 0.805515 0.670785
vt 0.981162 0.825187
vt 0.819214 0.825187
vt 0.900188 0.979589
vt 0.877821 0.361980
vt 0.922555 0.361980
vt 0.974827 0.516382
vt 0.825550 0.516382
vt 0.994861 0.670785
vt 0.805515 0.670785
vt 0.981162 0.825187
vt 0.819214 0.825187
vt 0.900188 0.979589
vt 0.877821 0.361980
vt 0.922555 0.361980
vt 0.974827 0.516382
vt 0.825550 0.516382
vt 0.994861 0.670785
vt 0.805515 0.670785
vt 0.981162 0.825187
vt 0.819214 0.825187
vt 0.900188 0.979589
vt 0.877821 0.361980
vt 0.922555 0.361980
vt 0.974827 0.516382
vt 0.825550 0.516382
vt 0.994861 0.670785
vt 0.805515 0.670785
vt 0.981162 0.825187
vt 0.819214 0.825187
vt 0.900188 0.979589
vt 0.039108 0.754926
vt 0.603954 0.597198
vn 0.000000 0.000000 1.000000
vn 0.000000 0.000000 1.000000
vn 0.000000 0.000000 1.000000
vn 0.000000 0.000000 1.000000
vn 0.000000 0.000000 1.000000
vn 0.000000 0.000000 1.000000
vn 0.000000 0.000000 1.000000
vn 0.000000 0.000000 1.000000
vn 0.000000 0.000000 1.000000
vn 0.000000 0.000000 1.000000
vn 0.000000 0.000000 1.000000
vn 0.000000 0.000000 1.000000
vn 0.000000 0.000000 1.000000
vn 0.000000 0.000000 1.000000
vn 0.000000 0.000000 1.000000
vn 0.000000 0.000000 1.000000
vn -0.377666 0.849484 0.368436
vn -0.008369 0.755455 0.655147
vn -0.368567 0.849485 0.377536
vn -0.655421 0.755222 0.007892
vn 0.008369 0.755455 0.655147
vn 0.368567 0.849485 0.377536
vn 0.377666 0.849484 0.368436
vn 0.655422 0.755222 0.007892
vn -0.368568 0.849485 -0.377536
vn -0.655421 0.755222 -0.007892
vn 0.000000 1.000000 0.000000
vn 0.000000 1.000000 0.000000
vn 0.000000 1.000000 0.000000
vn 0.000000 1.000000 0.000000
vn 0.655422 0.755222 -0.007892
vn 0.368568 0.849485 -0.377536
vn -0.008369 0.755454 -0.655148
vn -0.377666 0.849484 -0.368436
vn 0.008369 0.755454 -0.655148
vn 0.377666 0.849484 -0.368436
vn 0.000000 0.000000 -1.000000
vn 0.000000 0.000000 -1.000000
vn 0.000000 0.000000 -1.000000
vn 0.000000 0.000000 -1.000000
vn 0.000000 0.000000 -1.000000
vn 0.000000 0.000000 -1.000000
vn 0.000000 0.000000 -1.000000
vn 0.000000 0.000000 -1.000000
vn 0.000000 0.000000 -1.000000
vn 0.000000 0.000000 -1.000000
vn 0.000000 0.000000 -1.000000
vn 0.000000 0.000000 -1.000000
vn 0.000000 0.000000 -1.000000
vn 0.000000 0.000000 -1.000000
vn 0.000000 0.000000 -1.000000
vn 0.000000 0.000000 -1.000000
vn 0.000000 -1.000000 0.000000
vn 0.000000 -1.000000 0.000000
vn 0.000000 -1.000000 0.000000
vn 0.000000 -1.000000 0.000000
vn 0.000000 -1.000000 0.000000
vn 0.000000 -1.000000 0.000000
vn 0.000000 -1.000000 0.000000
vn 0.000000 -1.000000 0.000000
vn 0.000000 -1.000000 0.000000
vn 0.000000 -1.000000 0.000000
vn 0.000000 -1.000000 0.000000
vn 0.000000 -1.000000 0.000000
vn 0.000000 -1.000000 0.000000
vn 0.000000 -1.000000 0.000000
vn 0.000000 -1.000000 0.000000
vn 0.000000 -1.000000 0.000000
vn 1.000000 0.000000 0.000000
vn 1.000000 0.000000 0.000000
vn 1.000000 0.000000 0.000000
vn 1.000000 0.000000 0.000000
vn 1.000000 0.000000 0.000000
vn 1.000000 0.000000 0.000000
vn 1.000000 0.000000 0.000000
vn 1.000000 0.000000 0.000000
vn 1.000000 0.000000 0.000000
vn 1.000000 0.000000 0.000000
vn 1.000000 0.000000 0.000000
vn 1.000000 0.000000 0.000000
vn 1.000000 0.000000 0.000000
vn 1.000000 0.000000 0.000000
vn 1.000000 0.000000 0.000000
vn 1.000000 0.000000 0.000000
vn -1.000000 0.000000 0.000000
vn -1.000000 0.000000 0.000000
vn -1.000000 0.000000 0.000000
vn -1.000000 0.000000 0.000000
vn -1.000000 0.000000 0.000000
vn -1.000000 0.000000 0.000000
vn -1.000000 0.000000 0.000000
vn -1.000000 0.000000 0.000000
vn -1.000000 0.000000 0.000000
vn -1.000000 -0.000000 0.000000
vn -1.000000 -0.000000 0.000000
vn -1.000000 0.000000 0.000000
vn -1.000000 -0.000000 0.000000
vn -1.000000 -0.000000 0.000000
vn -1.000000 0.000000 0.000000
vn -1.000000 0.000000 0.000000
vn 0.000000 1.000000 0.000002
vn 0.000000 1.000000 0.000002
vn 0.000000 1.000000 0.000002
vn 0.000000 1.000000 0.000002
vn 0.000000 1.000000 0.000000
vn 0.000000 1.000000 0.000000
vn 0.000000 1.000000 0.000000
vn 0.000000 1.000000 0.000000
vn 0.000000 1.000000 -0.000002
vn 0.000000 1.000000 -0.000002
vn 0.000000 1.000000 -0.000002
vn 0.000000 1.000000 -0.000002
vn 0.000000 1.000000 0.000000
vn 0.000000 1.000000 0.000000
vn 0.000000 1.000000 0.000000
vn 0.000000 1.000000 0.000000
vn 0.000000 0.121314 -0.992614
vn 0.000000 0.121314 -0.992614
vn 0.000000 0.121314 -0.992614
vn 0.000000 0.121314 -0.992614
vn -0.992614 0.121314 0.000000
vn -0.992614 0.121314 0.000000
vn -0.992614 0.121314 0.000000
vn -0.992614 0.121314 0.000000
vn 0.000000 0.121314 0.992614
vn 0.000000 0.121314 0.992614
vn 0.000000 0.121314 0.992614
vn 0.000000 0.121314 0.992614
vn 0.992614 0.121314 0.000000
vn 0.992614 0.121314 0.000000
vn 0.992614 0.121314 0.000000
vn 0.992614 0.121314 0.000000
vn 0.000000 -0.996392 -0.084874
vn 0.000000 -0.996392 -0.084874
vn 0.000000 -0.996392 -0.084874
vn 0.000000 -0.996392 -0.084874
vn 0.000000 0.996392 -0.084874
vn 0.000000 0.996392 -0.084874
vn 0.000000 0.996392 -0.084874
vn 0.000000 0.996392 -0.084874
vn 0.000000 -0.996392 -0.084874
vn 0.000000 -0.996392 -0.084874
vn 0.000000 -0.996392 -0.084874
vn 0.000000 -0.996392 -0.084874
vn 0.000000 0.996392 -0.084874
vn 0.000000 0.996392 -0.084874
vn 0.000000 0.996392 -0.084874
vn 0.000000 0.996392 -0.084874
vn 0.000000 -0.996392 -0.084874
vn 0.000000 -0.996392 -0.084874
vn 0.000000 -0.996392 -0.084874
vn 0.000000 -0.996392 -0.084874
vn 0.000000 0.996392 -0.084874
vn 0.000000 0.996392 -0.084874
vn 0.000000 0.996392 -0.084874
vn 0.000000 0.996392 -0.084874
vn 0.000000 0.996392 0.084874
vn 0.000000 0.996392 0.084874
vn 0.000000 0.996392 0.084874
vn 0.000000 0.996392 0.084874
vn 0.000000 -0.996392 0.084874
vn 0.000000 -0.996392 0.084874
vn 0.000000 -0.996392 0.084874
vn 0.000000 -0.996392 0.084874
vn 0.000000 0.996392 0.084874
vn 0.000000 0.996392 0.084874
vn 0.000000 0.996392 0.084874
vn 0.000000 0.996392 0.084874
vn 0.000000 -0.996392 0.084874
vn 0.000000 -0.996392 0.084874
vn 0.000000 -0.996392 0.084874
vn 0.000000 -0.996392 0.084874
vn 0.000000 0.996392 0.084874
vn 0.000000 0.996392 0.084874
vn 0.000000 0.996392 0.084874
vn 0.000000 0.996392 0.084874
vn 0.000000 -0.996392 0.084874
vn 0.000000 -0.996392 0.084874
vn 0.000000 -0.996392 0.084874
vn 0.000000 -0.996392 0.084874
vn -0.084874 -0.996392 0.000000
vn -0.084874 -0.996392 0.000000
vn -0.084874 -0.996392 0.000000
vn -0.084874 -0.996392 0.000000
vn -0.084874 0.996392 0.000000
vn -0.084874 0.996392 0.000000
vn -0.084874 0.996392 0.000000
vn -0.084874 0.996392 0.000000
vn -0.084874 -0.996392 0.000000
vn -0.084874 -0.996392 0.000000
vn -0.084874 -0.996392 0.000000
vn -0.084874 -0.996392 0.000000
vn -0.084874 0.996392 0.000000
vn -0.084874 0.996392 0.000000
vn -0.084874 0.996392 0.000000
vn -0.084874 0.996392 0.000000
vn -0.084874 -0.996392 0.000000
vn -0.084874 -0.996392 0.000000
vn -0.084874 -0.996392 0.000000
vn -0.084874 -0.996392 0.000000
vn -0.084874 0.996392 0.000000
vn -0.084874 0.996392 0.000000
vn -0.084874 0.996392 0.000000
vn -0.084874 0.996392 0.000000
vn 0.084874 -0.996392 0.000000
vn 0.084874 -0.996392 0.000000
vn 0.084874 -0.996392 0.000000
vn 0.084874 -0.996392 0.000000
vn 0.084874 0.996392 0.000000
vn 0.084874 0.996392 0.000000
vn 0.084874 0.996392 0.000000
vn 0.084874 0.996392 0.000000
vn 0.084874 -0.996392 0.000000
vn 0.084874 -0.996392 0.000000
vn 0.084874 -0.996392 0.000000
vn 0.084874 -0.996392 0.000000
vn 0.084874 0.996392 0.000000
vn 0.084874 0.996392 0.000000
vn 0.084874 0.996392 0.000000
vn 0.084874 0.996392 0.000000
vn 0.084874 -0.996392 0.000000
vn 0.084874 -0.996392 0.000000
vn 0.084874 -0.996392 0.000000
vn 0.084874 -0.996392 0.000000
vn 0.084874 0.996392 0.000000
vn 0.084874 0.996392 0.000000
vn 0.084874 0.996392 0.000000
vn 0.084874 0.996392 0.000000
vn 0.090606 0.991757 -0.090606
vn 0.045210 0.989727 -0.135631
vn 0.068083 0.995354 -0.068084
vn 0.135631 0.989727 -0.045210
vn -0.045210 0.989727 -0.135631
vn -0.068083 0.995354 -0.068083
vn -0.090606 0.991757 -0.090606
vn -0.135631 0.989727 -0.045210
vn 0.068083 0.995354 0.068084
vn 0.135631 0.989727 0.045210
vn -0.068083 0.995354 0.068083
vn -0.135631 0.989727 0.045210
vn 0.045210 0.989727 0.135631
vn 0.090606 0.991757 0.090606
vn -0.045210 0.989727 0.135631
vn -0.090606 0.991757 0.090606
vn 0.000000 0.561594 0.827413
vn 0.000000 0.561594 0.827413
vn 0.000000 0.899501 0.436919
vn 0.000000 0.899501 0.436919
vn 0.000000 0.983904 -0.178698
vn 0.000000 0.983904 -0.178698
vn 0.000000 0.764986 -0.644047
vn 0.000000 0.764986 -0.644047
vn 0.000000 0.591581 -0.806245
vn -0.681548 0.561594 0.469153
vn -0.681548 0.561594 0.469153
vn -0.359894 0.899501 0.247738
vn -0.359894 0.899501 0.247738
vn 0.147196 0.983904 -0.101324
vn 0.147196 0.983904 -0.101324
vn 0.530508 0.764986 -0.365183
vn 0.530508 0.764986 -0.365183
vn 0.664112 0.591581 -0.457151
vn 0.684965 0.561594 0.464150
vn 0.684965 0.561594 0.464150
vn 0.355829 0.901179 0.247511
vn 0.361117 0.898101 0.251017
vn -0.132030 0.986656 -0.095277
vn -0.155342 0.981488 -0.112030
vn -0.535047 0.753320 -0.382406
vn -0.535608 0.752765 -0.382712
vn -0.667442 0.591581 -0.452275
vn 0.761003 0.561594 -0.324788
vn 0.761003 0.561594 -0.324788
vn 0.401851 0.899501 -0.171506
vn 0.401851 0.899501 -0.171506
vn -0.031262 0.999422 0.013342
vn -0.031262 0.999422 0.013342
vn -0.484281 0.850148 0.206686
vn -0.494128 0.843424 0.210888
vn -0.895328 0.228857 0.382116
vn -0.332145 0.561594 -0.757821
vn -0.332145 0.561594 -0.757821
vn -0.175391 0.899501 -0.400170
vn -0.175391 0.899501 -0.400170
vn 0.071734 0.983904 0.163668
vn 0.071734 0.983904 0.163668
vn 0.258537 0.764986 0.589877
vn 0.258537 0.764986 0.589877
vn 0.323648 0.591581 0.738434
vn -0.793637 0.493098 -0.356362
vn -0.793637 0.493098 -0.356362
vn -0.463404 0.861371 -0.208079
vn -0.463404 0.861371 -0.208079
vn 0.090166 0.995104 0.040487
vn 0.090166 0.995104 0.040487
vn 0.529394 0.814393 0.237711
vn 0.529394 0.814393 0.237711
vn 0.689625 0.654621 0.309658
vn 0.980849 0.092017 -0.171662
vn 0.980849 0.092017 -0.171662
vn 0.708924 0.688600 -0.152504
vn 0.711198 0.686188 -0.152782
vn 0.123754 0.990146 -0.065539
vn 0.090965 0.994042 -0.060055
vn -0.464315 0.884653 0.042428
vn -0.461436 0.886190 0.041761
vn -0.838989 0.526266 0.138351
s 1
g Plant
usemtl lambert3SG
f 53/1/1 54/2/2 55/3/3 56/4/4
f 54/2/2 57/5/5 58/6/6 55/3/3
f 57/5/5 59/7/7 60/8/8 58/6/6
s 2
f 5/9/9 6/10/10 10/261/11 9/12/12
f 6/10/10 7/13/13 11/14/14 10/261/11
f 7/13/13 8/15/15 12/16/16 11/14/14
s 3
f 9/19/17 10/20/18 14/177/19 13/180/20
f 10/11/18 11/260/21 15/17/22 14/18/19
f 11/37/21 12/38/23 16/36/24 15/170/22
f 13/22/20 14/178/19 18/23/25 17/176/26
s off
f 49/39/27 50/40/28 51/41/29 52/42/30
s 3
f 15/29/22 16/173/24 20/34/31 19/167/32
f 17/24/26 18/174/25 22/27/33 21/28/34
f 18/174/25 19/31/32 23/169/35 22/27/33
f 19/167/32 20/34/31 24/35/36 23/33/35
s 4
f 21/43/37 22/44/38 26/45/39 25/46/40
f 22/44/38 23/47/41 27/48/42 26/45/39
f 23/47/41 24/49/43 28/50/44 27/48/42
s 5
f 61/51/45 62/52/46 63/53/47 64/54/48
f 62/52/46 65/55/49 66/56/50 63/53/47
f 65/55/49 67/57/51 68/58/52 66/56/50
s 6
f 29/59/53 30/60/54 34/61/55 33/62/56
f 30/60/54 31/65/57 35/66/58 34/61/55
f 31/65/57 32/71/59 36/72/60 35/66/58
f 33/62/56 34/61/55 38/67/61 37/68/62
f 34/61/55 35/66/58 39/73/63 38/67/61
f 35/66/58 36/72/60 40/79/64 39/73/63
f 37/68/62 38/67/61 2/74/65 1/75/66
f 38/67/61 39/73/63 3/80/67 2/74/65
f 39/73/63 40/79/64 4/84/68 3/80/67
s 7
f 69/87/69 68/88/70 67/89/71 70/90/72
f 71/91/73 69/87/69 70/90/72 72/92/74
f 59/93/75 71/91/73 72/92/74 60/94/76
s 8
f 41/95/77 28/96/78 24/97/79 20/98/80
f 42/99/81 41/95/77 20/98/80 16/100/82
f 8/101/83 42/99/81 16/100/82 12/102/84
s 9
f 64/103/85 73/104/86 74/105/87 61/106/88
f 73/104/86 75/107/89 76/108/90 74/105/87
f 75/107/89 53/109/91 56/110/92 76/108/90
s 10
f 25/111/93 43/112/94 17/113/95 21/114/96
f 43/112/94 44/115/97 13/116/98 17/113/95
f 44/115/97 5/117/99 9/118/100 13/116/98
s off
f 14/21/101 15/171/102 46/172/103 45/25/104
f 15/29/105 19/167/106 47/168/107 46/30/108
f 19/31/109 18/174/110 48/175/111 47/32/112
f 18/23/113 14/178/114 45/179/115 48/26/116
f 45/119/117 46/120/118 50/121/119 49/122/120
f 46/123/121 47/124/122 51/125/123 50/126/124
f 47/127/125 48/128/126 52/129/127 51/130/128
f 48/131/129 45/132/130 49/133/131 52/134/132
f 1/75/133 2/74/134 54/81/135 53/82/136
f 6/135/137 5/163/138 56/164/139 55/138/140
f 2/74/141 3/80/142 57/85/143 54/81/144
f 7/141/145 6/135/146 55/138/147 58/142/148
f 3/80/149 4/84/150 59/86/151 57/85/152
f 8/145/153 7/141/154 58/142/155 60/146/156
f 25/147/157 26/151/158 62/152/159 61/148/160
f 30/60/161 29/59/162 64/63/163 63/64/164
f 26/151/165 27/155/166 65/156/167 62/152/168
f 31/65/169 30/60/170 63/64/171 66/70/172
f 27/155/173 28/159/174 67/160/175 65/156/176
f 32/71/177 31/65/178 66/70/179 68/77/180
f 36/72/181 32/71/182 68/77/183 69/78/184
f 28/157/185 41/153/186 70/154/187 67/158/188
f 40/79/189 36/72/190 69/78/191 71/83/192
f 41/153/193 42/149/194 72/150/195 70/154/196
f 4/84/197 40/79/198 71/83/199 59/86/200
f 42/149/201 8/165/202 60/166/203 72/150/204
f 29/59/205 33/62/206 73/69/207 64/63/208
f 43/143/209 25/161/210 61/162/211 74/144/212
f 33/62/213 37/68/214 75/76/215 73/69/216
f 44/139/217 43/143/218 74/144/219 76/140/220
f 37/68/221 1/75/222 53/82/223 75/76/224
f 5/136/225 44/139/226 76/140/227 56/137/228
s 11
f 77/181/229 78/182/230 82/183/231 81/184/232
f 78/182/230 79/185/233 83/186/234 82/183/231
f 79/185/233 80/187/235 84/188/236 83/186/234
f 81/184/232 82/183/231 86/189/237 85/190/238
f 82/183/231 83/186/234 87/191/239 86/189/237
f 83/186/234 84/188/236 88/192/240 87/191/239
f 85/190/238 86/189/237 90/193/241 89/194/242
f 86/189/237 87/191/239 91/195/243 90/193/241
f 87/191/239 88/192/240 92/196/244 91/195/243
s 12
f 93/197/245 94/198/246 96/199/247 95/200/248
f 95/200/248 96/199/247 98/201/249 97/202/250
f 97/202/250 98/201/249 100/203/251 99/204/252
f 99/204/252 100/203/251 101/205/253
s 13
f 102/206/254 103/207/255 105/208/256 104/209/257
f 104/209/257 105/208/256 107/210/258 106/211/259
f 106/211/259 107/210/258 109/212/260 108/213/261
f 108/213/261 109/212/260 110/214/262
s 14
f 111/215/263 112/216/264 114/217/265 113/218/266
f 113/218/266 114/217/265 116/219/267 115/220/268
f 115/220/268 116/219/267 118/221/269 117/222/270
f 117/222/270 118/221/269 119/223/271
s 15
f 120/224/272 121/225/273 123/226/274 122/227/275
f 122/227/275 123/226/274 125/228/276 124/229/277
f 124/229/277 125/228/276 127/230/278 126/231/279
f 126/231/279 127/230/278 128/232/280
s 16
f 129/233/281 130/234/282 132/235/283 131/236/284
f 131/236/284 132/235/283 134/237/285 133/238/286
f 133/238/286 134/237/285 136/239/287 135/240/288
f 135/240/288 136/239/287 137/241/289
s 17
f 138/242/290 139/243/291 141/244/292 140/245/293
f 140/245/293 141/244/292 143/246/294 142/247/295
f 142/247/295 143/246/294 145/248/296 144/249/297
f 144/249/297 145/248/296 146/250/298
s 18
f 147/251/299 148/252/300 150/253/301 149/254/302
f 149/254/302 150/253/301 152/255/303 151/256/304
f 151/256/304 152/255/303 154/257/305 153/258/306
f 153/258/306 154/257/305 155/259/307
